<svg width="51" height="46" viewBox="0 0 51 46" fill="none" xmlns="http://www.w3.org/2000/svg">
<path d="M11.105 26.0701L26.8259 40.7701C27.4675 41.3701 27.7755 42.0701 27.7499 42.8701C27.7242 43.6701 27.3895 44.3701 26.7457 44.9701C26.104 45.5201 25.3554 45.8081 24.4998 45.8341C23.6443 45.8601 22.8957 45.5721 22.254 44.9701L1.07899 25.1701C0.758153 24.8701 0.530362 24.5451 0.395612 24.1951C0.260862 23.8451 0.195627 23.4701 0.199904 23.0701C0.204182 22.6701 0.271556 22.2951 0.402029 21.9451C0.532501 21.5951 0.759224 21.2701 1.0822 20.9701L22.2572 1.17009C22.8454 0.620092 23.5812 0.345093 24.4645 0.345093C25.3479 0.345093 26.1093 0.620092 26.7489 1.17009C27.3905 1.77009 27.7114 2.48309 27.7114 3.30909C27.7114 4.13509 27.3905 4.84709 26.7489 5.44509L11.105 20.0701H46.9581C47.8672 20.0701 48.6297 20.3581 49.2457 20.9341C49.8617 21.5101 50.1686 22.2221 50.1665 23.0701C50.1643 23.9181 49.8563 24.6311 49.2425 25.2091C48.6286 25.7871 47.8672 26.0741 46.9581 26.0701H11.105Z" fill="white"/>
</svg>
