<svg width="40" height="40" viewBox="0 0 40 40" fill="none" xmlns="http://www.w3.org/2000/svg">
<path d="M35 31.6667V33.3333H5V31.6667L8.33333 28.3333V18.3333C8.33333 13.1667 11.7167 8.61668 16.6667 7.15001V6.66668C16.6667 5.78262 17.0179 4.93478 17.643 4.30965C18.2681 3.68453 19.1159 3.33334 20 3.33334C20.8841 3.33334 21.7319 3.68453 22.357 4.30965C22.9821 4.93478 23.3333 5.78262 23.3333 6.66668V7.15001C28.2833 8.61668 31.6667 13.1667 31.6667 18.3333V28.3333L35 31.6667ZM23.3333 35C23.3333 35.8841 22.9821 36.7319 22.357 37.357C21.7319 37.9822 20.8841 38.3333 20 38.3333C19.1159 38.3333 18.2681 37.9822 17.643 37.357C17.0179 36.7319 16.6667 35.8841 16.6667 35" fill="white"/>
</svg>
