<svg width="85" height="59" viewBox="0 0 85 59" fill="none" xmlns="http://www.w3.org/2000/svg">
<path d="M83.6843 50.6193C83.7302 49.6999 84.1506 47.132 84.1374 46.6329C84.0915 40.2361 80.0327 19.1545 79.3826 14.0187L79.3432 13.7034C79.1199 11.6872 79.0345 9.29009 78.2924 7.38551C77.5437 5.4678 75.1203 4.79792 73.3733 4.12147C66.1425 1.36312 57.9791 -0.961774 50.3083 1.4682C47.3135 2.41392 44.6143 4.10176 42.447 6.7616C40.2863 4.10176 37.5805 2.41392 34.5923 1.4682C26.9214 -0.961774 18.758 1.36312 11.5272 4.12147C9.78026 4.79135 7.34372 5.46124 6.60159 7.38551C5.85947 9.29009 5.77409 11.6807 5.55079 13.7034L5.51139 14.0187C4.86121 19.1545 0.809062 40.2361 0.756522 46.6329C0.743387 47.1386 1.17027 49.6999 1.21625 50.6193C1.28192 51.946 1.1243 53.2792 1.18998 54.5992C1.05863 55.059 1.17684 55.4924 1.45924 55.8339C1.64313 56.1886 1.92554 56.4053 2.23421 56.5169C2.93693 57.2919 4.21102 56.7796 5.0451 56.5169C12.5189 54.1001 20.7348 54.192 28.4451 55.2166C29.8111 55.3939 31.1706 55.6172 32.5235 55.8799C33.9289 56.1557 35.2621 56.6549 36.6085 57.1343C37.7184 57.5283 38.8808 57.8567 40.0498 58.08C40.8905 58.2705 41.7114 58.3493 42.0858 58.3558C42.2171 58.3558 42.3353 58.3427 42.4601 58.3361C42.5849 58.3361 42.7097 58.3558 42.8345 58.3558C43.2088 58.3558 44.0297 58.277 44.8704 58.08C46.0394 57.8567 47.2018 57.5283 48.3117 57.1343C49.6581 56.6549 50.9979 56.1557 52.4033 55.8799C53.7562 55.6172 55.1157 55.3939 56.4817 55.2166C64.1854 54.192 72.4079 54.1001 79.8817 56.5169C80.7092 56.7862 81.9833 57.2919 82.686 56.5169C83.0013 56.4053 83.2771 56.1886 83.461 55.8339C83.7434 55.4924 83.8616 55.059 83.7302 54.5992C83.7762 53.2726 83.6186 51.946 83.6843 50.6193ZM24.2879 42.0356C21.2734 41.9371 18.2523 42.0882 15.2707 42.5085C12.7094 42.8697 10.1809 43.4411 7.71807 44.2094C7.12042 44.3933 6.45054 44.5444 5.88574 44.8268C5.52452 45.0107 5.22899 45.2208 4.90718 44.8202C4.46059 44.2817 4.75613 43.3031 4.82837 42.6858C4.97285 41.4445 5.13704 40.2098 5.3275 38.9752C6.155 33.4782 7.26491 28.0337 8.02017 22.5236C8.34855 20.087 8.61781 17.6308 8.93305 15.1943C9.09067 13.9399 9.26799 12.6855 9.47159 11.4377C9.72115 9.90743 9.77369 8.83036 11.2054 7.90434C13.6419 6.32814 16.5645 5.63199 19.3557 4.95554C22.3636 4.22655 25.3649 3.6092 28.4779 3.72742C30.6583 3.81279 32.7796 4.39073 34.7039 5.4087C35.6365 5.90126 36.5297 6.4792 37.3769 7.11625C38.2175 7.74016 39.242 8.41004 39.9119 9.21128C40.5096 9.92056 40.7 10.5642 40.7591 11.2997C40.3454 20.711 40.4111 44.0453 40.4833 45.7003C40.4899 45.8382 40.503 45.9761 40.5096 46.114C40.4767 46.2913 40.3782 46.4293 40.0892 46.4293C39.7412 46.4358 39.3603 46.206 39.0581 46.0484C38.4342 45.72 37.8038 45.4047 37.1733 45.1092C33.0949 43.1849 28.7997 42.1801 24.2879 42.0356ZM79.9736 44.8137C79.6453 45.2143 79.3563 45.0041 78.9951 44.8202C78.4368 44.5378 77.767 44.3868 77.1628 44.2029C74.6999 43.4345 72.1715 42.8697 69.6101 42.5019C66.6285 42.0816 63.6009 41.9371 60.5864 42.029C56.0811 42.1735 51.786 43.1784 47.701 45.1026C47.0705 45.4047 46.44 45.72 45.8161 46.0418C45.514 46.1994 45.1331 46.4227 44.7784 46.4227C44.4895 46.4227 44.391 46.2848 44.3581 46.1075C44.3647 45.9695 44.3844 45.8316 44.3844 45.6937C44.4566 44.0387 44.5289 20.7044 44.1086 11.2932C44.1677 10.5576 44.3581 9.914 44.9492 9.20471C45.6322 8.40347 46.6502 7.72702 47.4908 7.10968C48.338 6.4792 49.2246 5.89469 50.1638 5.40213C52.0946 4.38417 54.2094 3.80623 56.3898 3.72085C59.5028 3.59607 62.5041 4.21998 65.512 4.94897C68.3032 5.62542 71.2257 6.31501 73.6688 7.89778C75.1006 8.82379 75.1531 9.90086 75.4027 11.4311C75.6063 12.6789 75.7836 13.9333 75.9412 15.1877C76.2499 17.6308 76.5191 20.0805 76.8541 22.517C77.6093 28.0206 78.7258 33.4716 79.5468 38.9686C79.7241 40.2033 79.9014 41.438 80.0459 42.6792C80.1247 43.2966 80.4202 44.2751 79.9736 44.8137Z" fill="#452A00"/>
<path d="M35.2622 11.0764C29.0427 8.16048 20.6626 8.00286 14.4038 10.9976C12.7488 11.7923 14.1936 14.1894 15.8355 13.4473C21.1618 11.0173 28.4648 11.3851 33.6334 13.8611C35.4986 14.7477 37.1339 11.9565 35.2622 11.0764ZM35.0651 18.7604C28.4451 15.8576 19.9336 14.7608 13.2545 18.2022C11.8031 18.9509 13.0772 20.9999 14.5154 20.3563C20.6429 17.6177 27.9854 19.2267 33.9421 21.4334C35.4855 22.0113 36.5822 19.4237 35.0651 18.7604ZM34.7171 26.4247C34.0143 25.8336 33.0358 25.5578 32.1886 25.2491C26.0414 23.003 17.878 22.9111 11.9738 25.9321C10.6735 26.5954 11.7702 28.4869 13.0509 28.1191C16.269 27.2062 19.2966 26.7005 22.6394 26.6677C25.2599 26.6414 27.6373 26.9172 30.1395 27.6659C30.8948 27.8892 31.6172 27.9746 32.3396 28.3161C32.8585 28.5591 33.5021 28.8678 34.0734 28.94C35.3213 29.0911 35.5774 27.2588 34.8747 26.5626L34.7171 26.4247ZM34.0669 33.8262C26.9608 30.4768 18.9879 31.0942 11.7965 33.6292C10.3123 34.1546 11.0215 36.4401 12.5321 35.9673C15.9143 34.9033 18.7318 34.1086 22.3242 34.0627C25.7787 34.0233 29.5287 35.1529 32.6943 36.3941C34.3953 37.0706 35.7941 34.6406 34.0669 33.8262ZM51.2474 13.8545C56.4161 11.3785 63.7191 11.0173 69.0454 13.4407C70.6807 14.1894 72.1321 11.7857 70.4771 10.9911C64.2248 7.99629 55.8447 8.15391 49.6253 11.0699C47.747 11.9565 49.3757 14.7477 51.2474 13.8545ZM50.9453 21.4334C56.9021 19.2267 64.2445 17.6177 70.372 20.3563C71.8103 20.9999 73.0844 18.9509 71.6329 18.2022C64.9472 14.7608 56.4358 15.8576 49.8223 18.7604C48.3052 19.4237 49.3954 22.0113 50.9453 21.4334ZM50.8074 28.9466C51.3854 28.8744 52.0158 28.5657 52.5347 28.3227C53.2637 27.9812 53.9861 27.8958 54.7414 27.6725C57.2436 26.9304 59.621 26.6545 62.2414 26.6742C65.5843 26.7005 68.6185 27.2062 71.8365 28.1257C73.1106 28.4934 74.2074 26.5954 72.9136 25.9387C67.0094 22.9176 58.8395 23.0096 52.6989 25.2557C51.8517 25.5643 50.8731 25.8336 50.1638 26.4312L50.0062 26.5757C49.2969 27.2588 49.5662 29.0976 50.8074 28.9466ZM73.0909 33.6292C65.8995 31.0942 57.9266 30.4768 50.8206 33.8262C49.0933 34.6406 50.4922 37.0706 52.1997 36.3941C55.3587 35.1529 59.1022 34.0233 62.5632 34.0627C66.1491 34.1086 68.9731 34.9033 72.3488 35.9673C73.8659 36.4467 74.5752 34.1546 73.0909 33.6292Z" fill="#452A00"/>
</svg>
