<svg width="594" height="401" viewBox="0 0 594 401" fill="none" xmlns="http://www.w3.org/2000/svg">
<path d="M68.4572 194.808C39.1786 182.019 19.2335 156.662 19.2335 127.448C19.2335 85.3591 60.6218 51.2429 111.678 51.2429C132.018 51.2429 150.817 56.6697 166.076 65.8455C172.227 28.6675 210.872 0.00500488 257.659 0.00500488C290.312 0.00500488 319.004 13.9745 335.454 35.044C352.331 16.819 378.976 5.04748 408.952 5.04748C460.019 5.04748 501.418 39.1638 501.418 81.2439C501.418 82.4016 501.374 83.5457 501.308 84.6853C501.341 84.6853 501.374 84.6853 501.418 84.6853C552.485 84.6853 593.874 118.802 593.874 160.891C593.874 192.543 570.455 219.676 537.127 231.19C545.561 242.686 550.439 256.171 550.439 270.589C550.439 312.673 509.04 346.79 457.972 346.79C426.411 346.79 398.57 333.747 381.884 313.854C367.898 341.309 325.643 374.177 266.521 373.978C220.452 373.824 160.254 356.282 155.365 309.553C138.466 327.751 111.865 339.5 81.9003 339.5C30.8439 339.5 0.407654 299.287 0.407654 257.203C0.402161 235.355 29.5545 198.824 68.4572 194.808Z" fill="white"/>
<path d="M461.128 299.694C461.128 299.694 418.434 355.179 488.113 399.628C488.113 399.628 329.325 411.197 325.638 318.643L461.128 299.694Z" fill="white"/>
</svg>
