<svg width="594" height="374" viewBox="0 0 594 374" fill="none" xmlns="http://www.w3.org/2000/svg">
<path d="M68.4574 194.808C39.1789 182.019 19.2337 156.662 19.2337 127.448C19.2337 85.3591 60.622 51.2429 111.678 51.2429C132.019 51.2429 150.817 56.6697 166.076 65.8455C172.227 28.6675 210.872 0.00500488 257.659 0.00500488C290.312 0.00500488 319.004 13.9745 335.454 35.044C352.332 16.819 378.976 5.04748 408.952 5.04748C460.019 5.04748 501.418 39.1638 501.418 81.2439C501.418 82.4016 501.375 83.5457 501.309 84.6853C501.342 84.6853 501.375 84.6853 501.418 84.6853C552.486 84.6853 593.874 118.802 593.874 160.891C593.874 192.543 570.456 219.676 537.128 231.19C545.561 242.686 550.439 256.171 550.439 270.589C550.439 312.673 509.04 346.79 457.973 346.79C426.411 346.79 398.57 333.747 381.885 313.854C367.898 341.309 325.643 374.177 266.521 373.978C220.452 373.824 160.255 356.282 155.366 309.553C138.466 327.751 111.865 339.5 81.9005 339.5C30.8442 339.5 0.407898 299.287 0.407898 257.203C0.402405 235.355 29.5547 198.824 68.4574 194.808Z" fill="white"/>
</svg>
