<svg width="413" height="293" viewBox="0 0 413 293" fill="none" xmlns="http://www.w3.org/2000/svg">
<path d="M365.314 142.427C385.638 133.1 399.484 114.607 399.484 93.3012C399.484 62.6053 370.753 37.7241 335.312 37.7241C321.192 37.7241 308.143 41.6819 297.55 48.3738C293.281 21.2597 266.455 0.355957 233.976 0.355957C211.31 0.355957 191.393 10.544 179.974 25.9101C168.258 12.6185 149.762 4.03347 128.954 4.03347C93.5047 4.03347 64.7666 28.9147 64.7666 59.604C64.7666 60.4484 64.7971 61.2827 64.8428 62.1139C64.8199 62.1139 64.7971 62.1139 64.7666 62.1139C29.3173 62.1139 0.586914 86.9952 0.586914 117.691C0.586914 140.775 16.8432 160.564 39.9784 168.961C34.1241 177.345 30.738 187.18 30.738 197.694C30.738 228.387 59.4761 253.268 94.9254 253.268C116.834 253.268 136.16 243.756 147.743 229.248C157.452 249.271 186.784 273.242 227.825 273.097C259.804 272.985 301.592 260.191 304.985 226.111C316.717 239.383 335.182 247.952 355.982 247.952C391.424 247.952 412.552 218.624 412.552 187.932C412.556 171.998 392.319 145.356 365.314 142.427Z" fill="white"/>
<path d="M92.7348 218.921C92.7348 218.921 122.372 259.386 74.0027 291.804C74.0027 291.804 184.228 300.241 186.788 232.741L92.7348 218.921Z" fill="white"/>
</svg>
