<svg width="668" height="97" viewBox="0 0 668 97" fill="none" xmlns="http://www.w3.org/2000/svg">
<path d="M72.7076 43.4665C80.1872 43.0197 85.2255 37.2152 84.3091 27.9017C83.5521 20.1993 77.4344 2.179 55.6477 5.24933C40.6487 7.36454 20.8396 11.9721 14.0011 14.448C7.83636 16.6821 -0.150307 21.0027 0.805916 27.0368C2.37789 36.9651 13.3274 45.0857 30.065 34.1777C48.226 22.3391 47.5886 44.971 72.7076 43.4665Z" fill="#663D24"/>
<path d="M100.869 38.6622C101.195 35.1861 97.7394 31.9067 93.143 31.3369C88.5502 30.7671 84.5587 33.1242 84.2291 36.6044C83.9031 40.0806 87.3585 43.36 91.9549 43.9298C96.5513 44.4955 100.543 42.1384 100.869 38.6622Z" fill="#663D24"/>
<path d="M85.1596 23.4744C85.1017 25.8929 87.6915 27.8565 90.9441 27.8565C94.1967 27.8565 96.8842 25.897 96.9458 23.4744C97.0038 21.0558 94.4141 19.0923 91.1614 19.0923C87.9052 19.0923 85.2176 21.0558 85.1596 23.4744Z" fill="#663D24"/>
<path d="M81.7592 15.1213C81.7664 17.0685 84.0229 18.5606 86.7974 18.454C89.5719 18.3474 91.814 16.6831 91.8032 14.736C91.7959 12.7889 89.5393 11.2967 86.7648 11.4033C83.9939 11.5099 81.7519 13.1742 81.7592 15.1213Z" fill="#663D24"/>
<path d="M76.507 8.61141C76.5504 10.5585 78.8324 11.9974 81.6033 11.8252C84.3741 11.653 86.5873 9.93547 86.5438 7.99243C86.5003 6.04529 84.2184 4.60645 81.4475 4.77862C78.6766 4.95079 76.4635 6.66427 76.507 8.61141Z" fill="#663D24"/>
<path d="M73.7651 6.81128C76.0615 6.62271 77.8726 5.16338 77.811 3.54828C77.7494 1.93728 75.8405 0.781294 73.5441 0.969859C71.2478 1.15842 69.4367 2.61776 69.4983 4.23286C69.5599 5.84386 71.4687 6.99984 73.7651 6.81128Z" fill="#663D24"/>
<path d="M84.3091 69.5306C85.2255 60.2171 80.1872 54.4126 72.7076 53.9658C47.5886 52.4613 48.2224 75.0932 30.065 63.2546C13.3274 52.3466 2.37789 60.4672 0.805916 70.3955C-0.150307 76.4296 7.83636 80.7543 14.0011 82.9843C20.836 85.4602 40.6487 90.0678 55.6477 92.183C77.4344 95.2574 83.5521 77.2331 84.3091 69.5306Z" fill="#663D24"/>
<path d="M84.2325 60.8301C84.5621 64.3062 88.55 66.6633 93.1464 66.0976C97.7392 65.5278 101.198 62.2484 100.872 58.7723C100.546 55.2961 96.5548 52.939 91.962 53.5047C87.362 54.0704 83.9029 57.3498 84.2325 60.8301Z" fill="#663D24"/>
<path d="M85.1595 73.9563C85.2175 76.3749 87.9051 78.3384 91.1613 78.3384C94.4139 78.3384 97.0073 76.3749 96.9457 73.9563C96.8878 71.5378 94.2002 69.5742 90.944 69.5742C87.6878 69.5742 85.0979 71.5378 85.1595 73.9563Z" fill="#663D24"/>
<path d="M81.7591 82.3112C81.7518 84.2584 83.9939 85.9226 86.7684 86.0292C89.5429 86.1358 91.7994 84.6437 91.8066 82.6965C91.8139 80.7494 89.5719 79.0851 86.801 78.9785C84.0301 78.8719 81.7699 80.3641 81.7591 82.3112Z" fill="#663D24"/>
<path d="M76.507 88.8206C76.4635 90.7677 78.6766 92.4812 81.4475 92.6533C84.2184 92.8255 86.5003 91.3867 86.5438 89.4395C86.5873 87.4924 84.3741 85.7748 81.6033 85.6067C78.8324 85.4346 76.5504 86.8734 76.507 88.8206Z" fill="#663D24"/>
<path d="M77.811 93.8838C77.8726 92.2728 76.0615 90.8135 73.7651 90.6208C71.4687 90.4322 69.5599 91.5841 69.4983 93.1992C69.4367 94.8102 71.2478 96.2737 73.5441 96.4622C75.8405 96.6508 77.7494 95.4948 77.811 93.8838Z" fill="#663D24"/>
<path d="M214.795 43.7423C221.879 43.3159 226.65 37.823 225.784 28.9973C225.067 21.7047 219.272 4.63142 198.637 7.54188C184.431 9.54641 165.669 13.908 159.192 16.2528C153.354 18.368 145.791 22.4631 146.696 28.1775C148.185 37.5811 158.555 45.2713 174.409 34.9412C191.606 23.7339 191.005 45.1688 214.795 43.7423Z" fill="#663D24"/>
<path d="M241.467 39.193C241.779 35.9013 238.501 32.794 234.151 32.257C229.801 31.72 226.019 33.95 225.708 37.2458C225.396 40.5375 228.674 43.6447 233.024 44.1817C237.378 44.7187 241.159 42.4846 241.467 39.193Z" fill="#663D24"/>
<path d="M226.588 24.8081C226.53 27.0996 228.986 28.9565 232.068 28.9606C235.151 28.9606 237.697 27.1037 237.751 24.8122C237.809 22.5207 235.354 20.6638 232.271 20.6597C229.189 20.6597 226.646 22.5166 226.588 24.8081Z" fill="#663D24"/>
<path d="M223.368 16.8966C223.375 18.7413 225.512 20.1555 228.138 20.053C230.764 19.9546 232.89 18.3764 232.883 16.5318C232.876 14.6871 230.739 13.2729 228.109 13.3754C225.483 13.4778 223.36 15.0519 223.368 16.8966Z" fill="#663D24"/>
<path d="M218.395 10.7303C218.435 12.5749 220.597 13.9359 223.223 13.7719C225.849 13.6079 227.943 11.9846 227.903 10.14C227.863 8.29533 225.701 6.93438 223.075 7.09835C220.449 7.26232 218.355 8.88972 218.395 10.7303Z" fill="#663D24"/>
<path d="M215.798 9.02539C217.971 8.84503 219.688 7.46358 219.63 5.93457C219.572 4.40965 217.765 3.31516 215.591 3.49552C213.418 3.67589 211.701 5.05733 211.759 6.58635C211.813 8.11127 213.621 9.20166 215.798 9.02539Z" fill="#663D24"/>
<path d="M388.346 43.7423C395.431 43.3159 400.201 37.823 399.335 28.9973C398.618 21.7047 392.823 4.63142 372.188 7.54188C357.982 9.54641 339.216 13.908 332.744 16.2528C326.905 18.368 319.342 22.4631 320.247 28.1775C321.736 37.5811 332.106 45.2713 347.96 34.9412C365.157 23.7339 364.553 45.1688 388.346 43.7423Z" fill="#663D24"/>
<path d="M415.019 39.193C415.33 35.9013 412.052 32.794 407.702 32.257C403.352 31.72 399.57 33.95 399.263 37.2458C398.951 40.5375 402.229 43.6447 406.579 44.1817C410.929 44.7187 414.707 42.4846 415.019 39.193Z" fill="#663D24"/>
<path d="M400.139 24.8081C400.081 27.0996 402.536 28.9565 405.619 28.9606C408.701 28.9606 411.248 27.1037 411.302 24.8122C411.356 22.5207 408.904 20.6638 405.822 20.6597C402.739 20.6556 400.193 22.5166 400.139 24.8081Z" fill="#663D24"/>
<path d="M396.919 16.8966C396.926 18.7413 399.063 20.1555 401.693 20.053C404.319 19.9546 406.445 18.3764 406.434 16.5318C406.427 14.6871 404.29 13.2729 401.664 13.3754C399.034 13.4778 396.912 15.0519 396.919 16.8966Z" fill="#663D24"/>
<path d="M391.946 10.7303C391.986 12.5749 394.148 13.9359 396.774 13.7719C399.4 13.6079 401.494 11.9846 401.454 10.14C401.414 8.29533 399.252 6.93438 396.626 7.09835C394 7.26232 391.903 8.88972 391.946 10.7303Z" fill="#663D24"/>
<path d="M389.346 9.02539C391.519 8.84503 393.236 7.46358 393.178 5.93457C393.12 4.40965 391.313 3.31516 389.14 3.49552C386.966 3.67589 385.25 5.05733 385.308 6.58635C385.365 8.11127 387.173 9.20166 389.346 9.02539Z" fill="#663D24"/>
<path d="M304.465 68.433C305.334 59.6114 300.56 54.1143 293.476 53.6921C269.682 52.2656 270.287 73.7005 253.086 62.4891C237.236 52.1549 226.862 59.8491 225.373 69.2528C224.468 74.9671 232.035 79.0623 237.87 81.1775C244.346 83.5223 263.108 87.8839 277.314 89.8884C297.952 92.7988 303.748 75.7255 304.465 68.433Z" fill="#663D24"/>
<path d="M304.393 60.1894C304.704 63.4811 308.482 65.7152 312.836 65.1782C317.186 64.6412 320.464 61.534 320.152 58.2423C319.841 54.9506 316.063 52.7165 311.709 53.2535C307.356 53.7905 304.081 56.8977 304.393 60.1894Z" fill="#663D24"/>
<path d="M305.269 72.6257C305.327 74.9172 307.87 76.7741 310.952 76.7741C314.034 76.7741 316.487 74.9131 316.432 72.6216C316.378 70.3301 313.832 68.4731 310.749 68.4731C307.667 68.4731 305.215 70.3342 305.269 72.6257Z" fill="#663D24"/>
<path d="M302.049 80.5377C302.042 82.3824 304.164 83.9565 306.79 84.059C309.416 84.1615 311.554 82.7472 311.564 80.9026C311.572 79.0579 309.449 77.4838 306.823 77.3813C304.193 77.2829 302.06 78.6931 302.049 80.5377Z" fill="#663D24"/>
<path d="M297.076 86.7025C297.037 88.5471 299.13 90.1704 301.756 90.3344C304.382 90.4984 306.541 89.1333 306.584 87.2928C306.624 85.4481 304.531 83.8248 301.905 83.6609C299.279 83.4969 297.116 84.8578 297.076 86.7025Z" fill="#663D24"/>
<path d="M298.308 91.4994C298.366 89.9704 296.649 88.589 294.476 88.4086C292.303 88.2282 290.492 89.3227 290.437 90.8476C290.379 92.3726 292.096 93.7581 294.269 93.9385C296.443 94.1188 298.254 93.0243 298.308 91.4994Z" fill="#663D24"/>
<path d="M561.897 43.7423C568.982 43.3159 573.752 37.823 572.887 28.9973C572.169 21.7047 566.374 4.63142 545.739 7.54188C531.533 9.54641 512.768 13.908 506.295 16.2528C500.456 18.368 492.893 22.4631 493.799 28.1775C495.287 37.5811 505.657 45.2713 521.511 34.9412C538.705 23.7339 538.104 45.1688 561.897 43.7423Z" fill="#663D24"/>
<path d="M588.57 39.193C588.881 35.9013 585.603 32.794 581.253 32.257C576.903 31.72 573.122 33.95 572.81 37.2458C572.499 40.5375 575.777 43.6447 580.127 44.1817C584.477 44.7187 588.258 42.4846 588.57 39.193Z" fill="#663D24"/>
<path d="M573.69 24.8081C573.632 27.0996 576.088 28.9565 579.17 28.9606C582.252 28.9606 584.799 27.1037 584.853 24.8122C584.907 22.5207 582.455 20.6638 579.373 20.6597C576.291 20.6597 573.744 22.5166 573.69 24.8081Z" fill="#663D24"/>
<path d="M570.47 16.8966C570.477 18.7413 572.614 20.1555 575.244 20.053C577.87 19.9546 579.996 18.3764 579.985 16.5318C579.974 14.6871 577.841 13.2729 575.215 13.3754C572.585 13.4778 570.459 15.0519 570.47 16.8966Z" fill="#663D24"/>
<path d="M565.494 10.7303C565.534 12.5749 567.696 13.9359 570.322 13.7719C572.948 13.6079 575.042 11.9846 575.002 10.14C574.962 8.29533 572.8 6.93438 570.174 7.09835C567.548 7.26232 565.454 8.88972 565.494 10.7303Z" fill="#663D24"/>
<path d="M562.897 9.02539C565.071 8.84503 566.787 7.46358 566.73 5.93457C566.672 4.40965 564.864 3.31516 562.691 3.49552C560.518 3.67589 558.801 5.05733 558.859 6.58635C558.913 8.11127 560.724 9.20166 562.897 9.02539Z" fill="#663D24"/>
<path d="M478.017 68.433C478.886 59.6114 474.113 54.1143 467.028 53.6921C443.234 52.2656 443.839 73.7005 426.638 62.4891C410.788 52.1549 400.414 59.8491 398.926 69.2528C398.02 74.9671 405.587 79.0623 411.422 81.1775C417.898 83.5223 436.66 87.8839 450.866 89.8884C471.505 92.7988 477.3 75.7255 478.017 68.433Z" fill="#663D24"/>
<path d="M477.941 60.1894C478.252 63.4811 482.03 65.7152 486.38 65.1782C490.73 64.6412 494.008 61.534 493.697 58.2423C493.385 54.9506 489.607 52.7165 485.257 53.2535C480.907 53.7905 477.633 56.8977 477.941 60.1894Z" fill="#663D24"/>
<path d="M478.82 72.6257C478.878 74.9172 481.421 76.7741 484.503 76.7741C487.586 76.7741 490.038 74.9131 489.983 72.6216C489.926 70.3301 487.383 68.4731 484.301 68.4731C481.218 68.4731 478.762 70.3342 478.82 72.6257Z" fill="#663D24"/>
<path d="M475.601 80.5377C475.593 82.3824 477.716 83.9565 480.342 84.059C482.968 84.1615 485.105 82.7472 485.112 80.9026C485.12 79.0579 482.997 77.4838 480.371 77.3813C477.745 77.2829 475.608 78.6931 475.601 80.5377Z" fill="#663D24"/>
<path d="M470.628 86.7025C470.588 88.5471 472.681 90.1704 475.307 90.3344C477.933 90.4984 480.092 89.1333 480.136 87.2928C480.179 85.4522 478.082 83.8248 475.456 83.6609C472.83 83.4969 470.667 84.8578 470.628 86.7025Z" fill="#663D24"/>
<path d="M471.859 91.4994C471.917 89.9704 470.201 88.589 468.027 88.4086C465.854 88.2282 464.043 89.3227 463.989 90.8476C463.931 92.3726 465.648 93.7581 467.821 93.9385C469.994 94.1188 471.801 93.0243 471.859 91.4994Z" fill="#663D24"/>
<path d="M651.564 68.433C652.433 59.6114 647.659 54.1143 640.575 53.6921C616.781 52.2656 617.386 73.7005 600.185 62.4891C584.331 52.1549 573.961 59.8491 572.473 69.2528C571.567 74.9671 579.134 79.0623 584.969 81.1775C591.445 83.5223 610.207 87.8839 624.413 89.8884C645.052 92.7988 650.847 75.7255 651.564 68.433Z" fill="#663D24"/>
<path d="M651.492 60.1894C651.803 63.4811 655.581 65.7152 659.935 65.1782C664.285 64.6412 667.563 61.534 667.251 58.2423C666.94 54.9506 663.162 52.7165 658.812 53.2535C654.458 53.7905 651.18 56.8977 651.492 60.1894Z" fill="#663D24"/>
<path d="M652.372 72.6257C652.43 74.9172 654.973 76.7741 658.055 76.7741C661.137 76.7741 663.59 74.9131 663.535 72.6216C663.477 70.3301 660.935 68.4731 657.852 68.4731C654.766 68.4731 652.314 70.3342 652.372 72.6257Z" fill="#663D24"/>
<path d="M649.152 80.5377C649.145 82.3824 651.267 83.9565 653.893 84.059C656.519 84.1615 658.656 82.7472 658.664 80.9026C658.671 79.0579 656.548 77.4838 653.922 77.3813C651.296 77.2829 649.159 78.6931 649.152 80.5377Z" fill="#663D24"/>
<path d="M644.176 86.7025C644.136 88.5471 646.229 90.1704 648.855 90.3344C651.481 90.4984 653.64 89.1333 653.684 87.2928C653.723 85.4481 651.63 83.8248 649.004 83.6609C646.378 83.4969 644.219 84.8578 644.176 86.7025Z" fill="#663D24"/>
<path d="M645.411 91.4994C645.469 89.9704 643.752 88.589 641.579 88.4086C639.406 88.2282 637.598 89.3227 637.54 90.8476C637.482 92.3726 639.199 93.7581 641.373 93.9385C643.546 94.1188 645.353 93.0243 645.411 91.4994Z" fill="#663D24"/>
</svg>
