<svg width="61" height="61" viewBox="0 0 61 61" fill="none" xmlns="http://www.w3.org/2000/svg">
<path fill-rule="evenodd" clip-rule="evenodd" d="M55.8428 12.6444C54.5167 12.6444 53.2449 13.1712 52.3072 14.1089C51.3696 15.0466 50.8428 16.3184 50.8428 17.6444V20.9778H60.8428V17.6444C60.8428 16.3184 60.316 15.0466 59.3783 14.1089C58.4406 13.1712 57.1689 12.6444 55.8428 12.6444ZM60.8428 24.3111H50.8428V51.8111L55.8428 59.3111L60.8428 51.8111V24.3111ZM0.842773 5.97778V55.9778C0.842773 57.3039 1.36956 58.5756 2.30724 59.5133C3.24492 60.451 4.51669 60.9778 5.84277 60.9778H42.5094C43.8355 60.9778 45.1073 60.451 46.045 59.5133C46.9827 58.5756 47.5094 57.3039 47.5094 55.9778V5.97778C47.5094 4.6517 46.9827 3.37993 46.045 2.44225C45.1073 1.50457 43.8355 0.977783 42.5094 0.977783H5.84277C4.51669 0.977783 3.24492 1.50457 2.30724 2.44225C1.36956 3.37993 0.842773 4.6517 0.842773 5.97778ZM24.1761 15.9778C24.1761 15.5358 24.3517 15.1118 24.6643 14.7993C24.9768 14.4867 25.4007 14.3111 25.8428 14.3111H39.1761C39.6181 14.3111 40.0421 14.4867 40.3546 14.7993C40.6672 15.1118 40.8428 15.5358 40.8428 15.9778C40.8428 16.4198 40.6672 16.8437 40.3546 17.1563C40.0421 17.4689 39.6181 17.6444 39.1761 17.6444H25.8428C25.4007 17.6444 24.9768 17.4689 24.6643 17.1563C24.3517 16.8437 24.1761 16.4198 24.1761 15.9778ZM25.8428 20.9778C25.4007 20.9778 24.9768 21.1534 24.6643 21.4659C24.3517 21.7785 24.1761 22.2024 24.1761 22.6444C24.1761 23.0865 24.3517 23.5104 24.6643 23.823C24.9768 24.1355 25.4007 24.3111 25.8428 24.3111H39.1761C39.6181 24.3111 40.0421 24.1355 40.3546 23.823C40.6672 23.5104 40.8428 23.0865 40.8428 22.6444C40.8428 22.2024 40.6672 21.7785 40.3546 21.4659C40.0421 21.1534 39.6181 20.9778 39.1761 20.9778H25.8428ZM24.1761 37.6444C24.1761 37.2024 24.3517 36.7785 24.6643 36.4659C24.9768 36.1534 25.4007 35.9778 25.8428 35.9778H39.1761C39.6181 35.9778 40.0421 36.1534 40.3546 36.4659C40.6672 36.7785 40.8428 37.2024 40.8428 37.6444C40.8428 38.0865 40.6672 38.5104 40.3546 38.823C40.0421 39.1355 39.6181 39.3111 39.1761 39.3111H25.8428C25.4007 39.3111 24.9768 39.1355 24.6643 38.823C24.3517 38.5104 24.1761 38.0865 24.1761 37.6444ZM25.8428 42.6444C25.4007 42.6444 24.9768 42.82 24.6643 43.1326C24.3517 43.4452 24.1761 43.8691 24.1761 44.3111C24.1761 44.7531 24.3517 45.1771 24.6643 45.4896C24.9768 45.8022 25.4007 45.9778 25.8428 45.9778H39.1761C39.6181 45.9778 40.0421 45.8022 40.3546 45.4896C40.6672 45.1771 40.8428 44.7531 40.8428 44.3111C40.8428 43.8691 40.6672 43.4452 40.3546 43.1326C40.0421 42.82 39.6181 42.6444 39.1761 42.6444H25.8428ZM10.8428 37.6444V42.6444H15.8428V37.6444H10.8428ZM9.17611 34.3111H17.5094C17.9515 34.3111 18.3754 34.4867 18.688 34.7993C19.0005 35.1118 19.1761 35.5358 19.1761 35.9778V44.3111C19.1761 44.7531 19.0005 45.1771 18.688 45.4896C18.3754 45.8022 17.9515 45.9778 17.5094 45.9778H9.17611C8.73408 45.9778 8.31016 45.8022 7.9976 45.4896C7.68504 45.1771 7.50944 44.7531 7.50944 44.3111V35.9778C7.50944 35.5358 7.68504 35.1118 7.9976 34.7993C8.31016 34.4867 8.73408 34.3111 9.17611 34.3111ZM20.3544 17.1561C20.658 16.8418 20.826 16.4208 20.8222 15.9838C20.8184 15.5468 20.6432 15.1288 20.3341 14.8198C20.0251 14.5107 19.6071 14.3355 19.1701 14.3317C18.7331 14.3279 18.3121 14.4959 17.9978 14.7994L12.5094 20.2878L10.3544 18.1328C10.0401 17.8292 9.6191 17.6612 9.18211 17.665C8.74511 17.6688 8.32709 17.8441 8.01808 18.1531C7.70906 18.4621 7.53378 18.8801 7.52998 19.3171C7.52619 19.7541 7.69418 20.1751 7.99777 20.4895L12.5094 25.0011L20.3544 17.1561Z" fill="white"/>
</svg>
