<svg width="240" height="240" viewBox="0 0 240 240" fill="none" xmlns="http://www.w3.org/2000/svg">
<path d="M118.25 64.5499L118.16 64.4899L110.23 59.1599C104.787 55.4988 98.2933 53.7228 91.7444 54.1039C85.1955 54.485 78.952 57.0022 73.97 61.2699L54.5 77.9599C53.1401 79.1228 51.4093 79.7612 49.62 79.7599H27.5C25.5109 79.7599 23.6032 80.5501 22.1967 81.9566C20.7902 83.3631 20 85.2708 20 87.2599V147.56C20 151.7 23.36 155.06 27.5 155.06H48.38C49.445 155.059 50.4979 155.285 51.4686 155.723C52.4394 156.161 53.3057 156.801 54.01 157.6L77.4 184.2C81.0412 188.338 86.0749 190.996 91.5459 191.669C97.0169 192.342 102.545 190.983 107.08 187.85L113.92 183.12L121.26 185.62C125.796 187.158 130.704 187.209 135.271 185.764C139.837 184.32 143.824 181.456 146.65 177.59L151.35 171.17L154.61 171.61C159.125 172.218 163.718 171.442 167.782 169.383C171.846 167.324 175.19 164.08 177.37 160.08L177.86 159.18H212.5C214.489 159.18 216.397 158.39 217.803 156.983C219.21 155.577 220 153.669 220 151.68V87.2699C220 85.2808 219.21 83.3731 217.803 81.9666C216.397 80.5601 214.489 79.7699 212.5 79.7699H190.39C188.591 79.7705 186.852 79.1245 185.49 77.9499L168.6 63.3599C161.555 57.2722 152.497 54.0232 143.189 54.245C133.88 54.4668 124.987 58.1436 118.24 64.5599M101.84 71.6099L107.46 75.3899L87.86 95.0999C85.7477 97.2243 84.0808 99.7491 82.9573 102.526C81.8337 105.303 81.2761 108.277 81.3171 111.272C81.358 114.268 81.9968 117.225 83.1959 119.971C84.395 122.716 86.1303 125.194 88.3 127.26L88.98 127.9C97.08 135.61 109.6 136.21 118.39 129.3L139.18 112.98L165.75 138.53C166.937 139.67 167.716 141.168 167.967 142.795C168.219 144.421 167.928 146.085 167.14 147.53L166.89 147.97L166.75 148.23L164.2 152.9C163.473 154.231 162.36 155.311 161.006 155.997C159.653 156.683 158.124 156.942 156.62 156.74L148.93 155.71C147.594 155.53 146.234 155.714 144.993 156.242C143.752 156.77 142.677 157.622 141.88 158.71L134.54 168.73C133.599 170.019 132.27 170.973 130.749 171.455C129.227 171.937 127.592 171.921 126.08 171.41L115.18 167.71C114.071 167.333 112.89 167.22 111.73 167.382C110.57 167.543 109.464 167.974 108.5 168.64L98.56 175.51C97.0473 176.556 95.203 177.009 93.3778 176.784C91.5526 176.559 89.8736 175.672 88.66 174.29L65.27 147.69C63.1569 145.29 60.5567 143.369 57.6425 142.053C54.7284 140.737 51.5674 140.058 48.37 140.06H35V94.7599H49.61C54.9792 94.7611 60.1718 92.8423 64.25 89.3499L83.73 72.6599C86.2204 70.5253 89.3419 69.2658 92.6163 69.0744C95.8908 68.8829 99.1378 69.77 101.86 71.5999M183.06 144.19C183.096 141.117 182.503 138.07 181.316 135.236C180.129 132.401 178.374 129.84 176.16 127.71L150.95 103.47C152.081 102.027 152.645 100.22 152.535 98.3904C152.425 96.5605 151.648 94.8342 150.352 93.5378C149.056 92.2415 147.329 91.4649 145.499 91.3547C143.669 91.2445 141.863 91.8084 140.42 92.9399L135.36 96.9099L134.76 97.3799L109.14 117.51C107.722 118.624 105.949 119.19 104.147 119.104C102.346 119.018 100.635 118.285 99.33 117.04L98.65 116.39C97.9266 115.702 97.3479 114.876 96.9479 113.961C96.5479 113.046 96.3346 112.06 96.3207 111.061C96.3067 110.063 96.4923 109.072 96.8665 108.146C97.2407 107.22 97.7961 106.378 98.5 105.67L128.15 75.8699C132.165 71.8331 137.562 69.4687 143.252 69.2534C148.941 69.0382 154.501 70.988 158.81 74.7099L175.68 89.2899C179.771 92.8219 184.996 94.7636 190.4 94.7599H205V144.19H183.06Z" fill="black"/>
</svg>
