<svg width="85" height="85" viewBox="0 0 85 85" fill="none" xmlns="http://www.w3.org/2000/svg">
<path d="M43.7108 17.5006C43.4664 17.2668 43.1412 17.1363 42.8029 17.1363C42.4646 17.1363 42.1394 17.2668 41.8949 17.5006L11.668 46.3763C11.5397 46.4991 11.4375 46.6466 11.3678 46.81C11.2981 46.9734 11.2623 47.1493 11.2625 47.3269L11.2576 74.4277C11.2576 75.8211 11.8111 77.1575 12.7964 78.1428C13.7817 79.1281 15.1181 79.6817 16.5116 79.6817H32.29C32.9867 79.6817 33.6549 79.4049 34.1475 78.9123C34.6402 78.4196 34.917 77.7514 34.917 77.0547V54.7252C34.917 54.3768 35.0554 54.0427 35.3017 53.7964C35.548 53.5501 35.8821 53.4117 36.2305 53.4117H49.3655C49.7138 53.4117 50.0479 53.5501 50.2942 53.7964C50.5406 54.0427 50.679 54.3768 50.679 54.7252V77.0547C50.679 77.7514 50.9557 78.4196 51.4484 78.9123C51.941 79.4049 52.6092 79.6817 53.306 79.6817H69.0778C70.4712 79.6817 71.8076 79.1281 72.7929 78.1428C73.7782 77.1575 74.3318 75.8211 74.3318 74.4277V47.3269C74.332 47.1493 74.2962 46.9734 74.2264 46.81C74.1567 46.6466 74.0546 46.4991 73.9262 46.3763L43.7108 17.5006Z" fill="white"/>
<path d="M81.3672 40.9581L69.086 29.2088V11.3797C69.086 10.683 68.8092 10.0148 68.3166 9.52217C67.8239 9.02951 67.1557 8.75274 66.459 8.75274H58.578C57.8813 8.75274 57.2131 9.02951 56.7205 9.52217C56.2278 10.0148 55.951 10.683 55.951 11.3797V16.6337L46.4413 7.54104C45.5514 6.64129 44.228 6.12574 42.798 6.12574C41.3728 6.12574 40.0528 6.64129 39.1629 7.54268L4.24021 40.9548C3.21897 41.9399 3.0909 43.5605 4.0202 44.6277C4.25356 44.8971 4.5393 45.1161 4.86002 45.2716C5.18074 45.427 5.52973 45.5156 5.88577 45.5319C6.2418 45.5481 6.59742 45.4918 6.93099 45.3663C7.26455 45.2408 7.56909 45.0487 7.82607 44.8017L41.8949 12.2466C42.1394 12.0128 42.4646 11.8823 42.8029 11.8823C43.1412 11.8823 43.4664 12.0128 43.7109 12.2466L77.783 44.8017C78.2849 45.283 78.9572 45.5457 79.6524 45.5322C80.3477 45.5186 81.0092 45.23 81.492 44.7295C82.5001 43.6852 82.4164 41.9613 81.3672 40.9581Z" fill="#452A00"/>
</svg>
