<svg width="335" height="209" viewBox="0 0 335 209" fill="none" xmlns="http://www.w3.org/2000/svg">
<path d="M315.843 102.818C321.895 100.591 328.481 101.149 334.902 101.822C332.652 101.021 330.481 100.116 328.355 99.2293C327.421 98.8394 326.486 98.4504 325.549 98.0719C317.255 94.718 309.113 91.9255 300.74 94.5077C290.927 97.5338 282.26 104.779 275.806 110.752C275.57 110.97 275.384 111.227 275.19 111.477C274.809 111.966 274.333 112.574 273.661 113.121C261.533 123.023 237.321 133.598 220.364 122.164C214.85 118.448 210.895 113.363 207.621 108.888C197.725 95.3583 186.015 83.5553 167.53 88.7198C167.091 88.8431 166.638 89.0372 166.114 89.2619C165.508 89.5229 164.9 89.7774 164.25 89.9811C163.989 90.0633 163.647 90.1857 163.264 90.321C160.909 91.1579 159.108 91.7306 157.571 91.5357C156.534 91.4036 155.656 90.7914 155.261 89.9288C154.005 87.1863 156.738 85.01 158.207 83.8405C158.444 83.652 158.661 83.4861 158.807 83.3467C159.71 82.4744 160.699 81.7898 161.659 81.1269C162.769 80.3585 163.818 79.632 164.424 78.7896C170.89 69.8 171.05 60.9296 164.891 53.1362C155.409 41.1407 132.49 34.0746 114.84 37.716C106.257 39.4839 95.5077 44.4511 93.0475 58.0679L91.2387 68.078C90.984 69.5036 89.4986 70.4838 87.8805 70.2559C86.2814 70.0352 85.1801 68.7046 85.4177 67.2757C86.8425 58.7034 88.4579 48.9874 85.2243 40.4408C83.1644 34.9992 78.9624 29.6092 72.377 23.9638C48.6952 3.66185 12.8283 -4.71637 -18.9775 2.61799C-33.9353 6.0677 -46.181 13.1653 -57.515 24.9554C-64.8105 32.5442 -73.595 42.7806 -76.7842 54.6834C-81.42 71.9755 -73.3438 91.5792 -56.6865 103.464C-41.0981 114.587 -19.085 118.724 2.19449 114.529C8.25317 113.336 13.7237 111.535 18.4994 109.23C21.1656 107.185 24.1335 105.305 27.414 103.654C28.0798 103.113 28.7439 102.571 29.3555 102C42.9166 89.344 40.9299 69.1871 31.3133 57.7707C22.8171 47.6866 10.2318 45.4869 -3.21642 51.7299C-7.4049 53.6734 -12.3126 57.8408 -13.1898 62.3932C-13.6461 64.7708 -12.8926 66.8601 -10.8806 68.7811C-9.77019 69.8411 -9.83524 71.5035 -11.0242 72.4934C-12.2114 73.4817 -14.0734 73.4261 -15.1874 72.3653C-18.4462 69.2523 -19.7635 65.4973 -18.9964 61.5055C-17.7749 55.1546 -11.5573 49.68 -5.93587 47.0712C10.0917 39.6346 25.7778 42.4536 36.0231 54.6166C45.5801 65.9613 48.5118 84.8416 39.0181 99.2156C48.1531 96.6953 58.9668 95.7538 71.5304 97.1907C84.5242 98.6767 101.858 105.579 107.949 120.145C114.487 135.771 103.916 152.155 90.6479 159.635C81.9005 164.566 69.5952 165.727 60.7213 162.465C53.9588 159.978 49.521 155.295 47.8884 148.92C45.3515 139.009 51.9504 128.809 62.297 126.645C68.0069 125.451 73.3654 126.182 76.6332 128.597C78.3724 129.883 80.4016 132.289 80.1947 136.454C80.0664 139.031 78.4013 141.583 75.8526 143.115C73.5054 144.526 70.7553 144.895 68.3023 144.123C66.7682 143.641 65.9623 142.14 66.5053 140.773C67.0465 139.405 68.7324 138.69 70.2628 139.17C71.2241 139.473 72.1882 138.985 72.5586 138.761C73.5768 138.15 74.2634 137.152 74.3113 136.219C74.3917 134.587 73.9219 133.415 72.873 132.641C71.0706 131.308 67.4531 130.96 63.644 131.759C55.6348 133.432 52.0028 141.38 53.6327 147.751C54.837 152.458 57.9784 155.775 62.9691 157.609C70.1824 160.264 80.2742 159.27 87.4993 155.196C98.8071 148.82 107.882 135.013 102.43 121.98C97.2558 109.607 82.1489 103.699 70.7833 102.4C54.1251 100.496 40.8676 103.094 30.8137 108.02C28.2135 110.057 25.2547 111.867 22.0347 113.477C16.2832 117.951 12.1579 123.269 9.60654 128.632C1.69124 145.268 6.52661 168.077 19.7001 184.189C19.9567 184.264 20.2088 184.359 20.4428 184.501C21.2297 184.978 21.6643 185.734 21.7185 186.519C24.952 190.084 28.6129 193.263 32.6604 195.886C50.1877 207.238 79.0771 209.877 97.0707 201.765C109.675 196.081 120.172 185.733 126.886 172.449C123.647 171.56 120.714 170.314 118.18 168.731C111.894 164.801 107.974 158.547 107.95 152.409C107.944 150.959 109.26 149.779 110.887 149.774C110.89 149.774 110.892 149.774 110.896 149.774C112.519 149.774 113.836 150.944 113.843 152.392C113.86 156.851 116.817 161.464 121.564 164.432C125.752 167.051 131.404 168.553 137.908 168.776C151.878 169.267 164.814 164.014 178.695 152.288C179.876 151.29 181.74 151.334 182.859 152.388C183.977 153.44 183.928 155.103 182.746 156.101C168.458 168.17 154.319 174.057 139.59 174.057C138.955 174.057 138.319 174.046 137.682 174.025C136.07 173.969 134.508 173.829 132.983 173.636C130.851 182.304 140.687 190.719 147.265 194.52C158.097 200.773 173.097 201.822 186.412 197.253C198.709 193.035 209.363 183.303 216.461 169.838C211.98 165.339 210.122 159.312 210.818 154.098C211.713 147.371 217.156 140.093 229.739 139.839C231.273 139.808 236.67 140.016 240.849 144.013C244.288 147.3 245.714 152.002 245.089 157.986C244.937 159.43 243.468 160.491 241.884 160.357C240.264 160.222 239.073 158.943 239.225 157.498C239.687 153.071 238.784 149.739 236.541 147.594C234.546 145.689 231.756 145.059 229.873 145.09C219.083 145.309 217.043 151.896 216.667 154.718C215.835 160.958 220.188 168.645 228.916 170.71C240.275 173.397 258.344 169.815 266.109 160.374C267.933 158.158 267.624 156.39 267.156 153.713C266.779 151.549 266.349 149.095 267.185 146.224C269.228 139.199 276.349 139.548 280.589 139.754C281.976 139.823 283.257 139.82 284.743 139.898C285.789 139.952 286.978 140.016 287.624 139.844C293.483 138.286 294.944 133.237 296.504 125.711C296.912 123.736 297.298 121.872 297.844 120.107C300.323 112.116 306.38 106.299 315.843 102.818Z" fill="black" fill-opacity="0.25"/>
<path d="M4.18127 126.58C5.522 123.761 7.25128 120.955 9.35999 118.25C7.44461 118.773 5.4931 119.257 3.4621 119.657C-19.5466 124.192 -43.4072 119.667 -60.3708 107.564C-69.6576 100.938 -76.514 92.1172 -80.3754 82.5348C-95.2466 82.7845 -108.389 86.4203 -117.477 92.8929C-129.05 101.133 -139.458 117.231 -136.967 132.057C-135.817 138.906 -131.67 145.31 -125.592 149.627C-116.951 155.762 -100.351 157.455 -89.3424 153.324C-82.4742 150.746 -78.6462 146.395 -77.9614 140.39C-77.0678 132.544 -83.3678 127.218 -89.6008 125.591C-94.9954 124.181 -102.138 125.116 -106.023 131.955C-106.758 133.251 -108.536 133.765 -109.981 133.112C-111.433 132.456 -112.014 130.876 -111.278 129.582C-106.731 121.58 -97.5748 118.032 -87.9429 120.549C-79.4467 122.768 -70.8637 130.089 -72.0997 140.919C-72.9914 148.755 -78.3038 154.879 -87.0548 158.163C-91.8613 159.967 -97.4863 160.83 -103.184 160.83C-112.873 160.83 -122.779 158.337 -129.261 153.734C-136.49 148.599 -141.423 140.981 -142.792 132.833C-143.298 129.829 -143.324 126.784 -142.982 123.757C-154.93 116.24 -172.258 116.479 -184.264 124.353C-189.344 127.686 -192.927 132.404 -196.721 137.4C-201.543 143.75 -206.527 150.317 -214.924 154.07C-219.03 155.906 -223.581 156.354 -227.891 156.656C-234.996 157.153 -239.547 155.347 -244.379 153.436C-246.251 152.695 -248.186 151.929 -250.376 151.258C-251.206 151.005 -252.009 150.719 -252.804 150.435C-254.686 149.764 -256.312 149.184 -258.113 149.134C-261.392 149.048 -263.879 149.287 -266.424 149.944C-266.616 149.994 -266.808 150.042 -267 150.091C-258.734 152.708 -254.597 160.9 -252.284 165.479C-246.755 176.434 -240.744 183.354 -227.885 184.004C-216.135 184.594 -207.057 179.321 -197.462 173.734C-192.325 170.744 -187.015 167.652 -181.169 165.435C-179.598 164.839 -178.051 164.387 -176.514 163.997C-176.123 163.674 -175.633 163.435 -175.07 163.338C-172.793 162.95 -170.589 162.78 -168.446 162.78C-155.166 162.153 -143.012 168.038 -131.169 173.798C-122.071 178.223 -112.664 182.798 -103.141 184.04C-88.4543 185.953 -74.0223 182.52 -64.5015 174.859C-63.2953 173.885 -61.4333 173.969 -60.3419 175.049C-59.2505 176.125 -59.3463 177.785 -60.5551 178.757C-69.4191 185.892 -81.9376 189.811 -95.196 189.811C-98.1034 189.811 -101.046 189.622 -103.993 189.238C-114.474 187.871 -124.274 183.135 -133.753 178.525C-131.873 180.138 -130.092 181.739 -128.408 183.254C-125.76 185.636 -123.258 187.888 -120.974 189.646C-119.657 190.661 -118.388 191.653 -117.151 192.62C-107.256 200.363 -100.109 205.958 -86.9852 208.092C-78.5694 209.46 -69.2176 208.601 -61.3375 205.729C-53.1629 202.75 -48.5218 197.89 -43.1461 192.264C-42.1984 191.272 -41.2317 190.26 -40.2234 189.233C-40.2216 189.23 -40.2198 189.227 -40.2162 189.225C-39.1483 188.136 -37.2835 188.024 -36.0602 188.98C-35.2489 189.613 -34.9209 190.554 -35.1052 191.435C-34.0581 192.719 -30.3855 195.43 -26.6704 197.619C-11.5915 206.513 4.93567 198.681 14.7663 187.152C0.379456 169.604 -4.62305 145.085 4.18127 126.58Z" fill="black" fill-opacity="0.25"/>
</svg>
