<svg width="46" height="54" viewBox="0 0 46 54" fill="none" xmlns="http://www.w3.org/2000/svg">
<path d="M27.0127 51.54C33.549 45.7875 45.1777 34.035 45.1777 23.25C45.1777 17.2826 42.8072 11.5597 38.5876 7.3401C34.3681 3.12053 28.6451 0.75 22.6777 0.75C16.7104 0.75 10.9874 3.12053 6.76783 7.3401C2.54826 11.5597 0.177734 17.2826 0.177734 23.25C0.177734 34.035 11.8027 45.7875 18.3427 51.54C19.5357 52.6048 21.0787 53.1933 22.6777 53.1933C24.2767 53.1933 25.8198 52.6048 27.0127 51.54ZM15.1777 23.25C15.1777 21.2609 15.9679 19.3532 17.3744 17.9467C18.781 16.5402 20.6886 15.75 22.6777 15.75C24.6669 15.75 26.5745 16.5402 27.981 17.9467C29.3876 19.3532 30.1777 21.2609 30.1777 23.25C30.1777 25.2391 29.3876 27.1468 27.981 28.5533C26.5745 29.9598 24.6669 30.75 22.6777 30.75C20.6886 30.75 18.781 29.9598 17.3744 28.5533C15.9679 27.1468 15.1777 25.2391 15.1777 23.25Z" fill="black"/>
</svg>
