<svg width="64" height="64" viewBox="0 0 64 64" fill="none" xmlns="http://www.w3.org/2000/svg">
<path fill-rule="evenodd" clip-rule="evenodd" d="M17.6681 14.5346C17.6681 10.8188 19.1442 7.25511 21.7717 4.6276C24.3992 2.00009 27.9629 0.523973 31.6788 0.523973C35.3946 0.523973 38.9583 2.00009 41.5858 4.6276C44.2133 7.25511 45.6894 10.8188 45.6894 14.5346C45.6894 18.2505 44.2133 21.8141 41.5858 24.4417C38.9583 27.0692 35.3946 28.5453 31.6788 28.5453C27.9629 28.5453 24.3992 27.0692 21.7717 24.4417C19.1442 21.8141 17.6681 18.2505 17.6681 14.5346ZM17.6681 35.5506C13.0233 35.5506 8.5687 37.3958 5.28432 40.6801C1.99993 43.9645 0.154785 48.4191 0.154785 53.0639C0.154785 55.8508 1.26187 58.5236 3.2325 60.4942C5.20314 62.4648 7.87588 63.5719 10.6628 63.5719H52.6947C55.4816 63.5719 58.1544 62.4648 60.125 60.4942C62.0956 58.5236 63.2027 55.8508 63.2027 53.0639C63.2027 48.4191 61.3576 43.9645 58.0732 40.6801C54.7888 37.3958 50.3342 35.5506 45.6894 35.5506H17.6681Z" fill="white"/>
</svg>
