<svg width="85" height="85" viewBox="0 0 85 85" fill="none" xmlns="http://www.w3.org/2000/svg">
<g clip-path="url(#clip0_26_18)">
<path d="M59.8346 70.0693H14.3V24.5346C14.3 22.6082 12.7238 21.032 10.7973 21.032C8.87088 21.032 7.29468 22.6082 7.29468 24.5346V70.0693C7.29468 73.9222 10.4471 77.0746 14.3 77.0746H59.8346C61.7611 77.0746 63.3373 75.4984 63.3373 73.5719C63.3373 71.6455 61.7611 70.0693 59.8346 70.0693Z" fill="white"/>
<path d="M70.3426 7.02131H28.3106C24.4577 7.02131 21.3053 10.1737 21.3053 14.0266V56.0586C21.3053 59.9115 24.4577 63.0639 28.3106 63.0639H70.3426C74.1955 63.0639 77.3479 59.9115 77.3479 56.0586V14.0266C77.3479 10.1737 74.1955 7.02131 70.3426 7.02131ZM49.3616 52.5559C47.2951 52.5559 45.6838 50.9097 45.6838 48.8781C45.6838 46.8116 47.3301 45.2354 49.3616 45.2354C51.4282 45.2354 53.0044 46.8116 53.0044 48.8781C52.9694 50.9097 51.4282 52.5559 49.3616 52.5559ZM58.1183 30.9445C55.9116 34.202 53.81 35.1827 52.6541 37.2843C52.3739 37.7747 52.1988 38.195 52.0937 39.0006C51.9186 40.3667 50.8328 41.3824 49.4667 41.3824H49.3616C47.8205 41.3824 46.5945 40.0514 46.7346 38.5103C46.8397 37.5295 47.0499 36.5137 47.6103 35.568C49.0464 33.0111 51.7434 31.5049 53.3196 29.2632C55.0009 26.8814 54.0552 22.4681 49.3266 22.4681C47.19 22.4681 45.7889 23.5889 44.9132 24.9199C44.2477 25.9357 42.9167 26.286 41.7959 25.7956C40.3248 25.1651 39.6943 23.3437 40.605 22.0477C42.3913 19.4558 45.3686 17.5293 49.2916 17.5293C53.5999 17.5293 56.5771 19.4908 58.0833 21.9427C59.3792 24.0793 60.1148 28.0023 58.1183 30.9445Z" fill="white"/>
</g>
<defs>
<clipPath id="clip0_26_18">
<rect width="84.0639" height="84.0639" fill="white" transform="translate(0.289307 0.0159912)"/>
</clipPath>
</defs>
</svg>
