<svg width="98" height="43" viewBox="0 0 98 43" fill="none" xmlns="http://www.w3.org/2000/svg">
<mask id="path-1-outside-1_45_27" maskUnits="userSpaceOnUse" x="0.0576172" y="0.128662" width="98" height="43" fill="black">
<rect fill="white" x="0.0576172" y="0.128662" width="98" height="43"/>
<path d="M20.4446 27.3318L27.3704 32.8162L24.0482 35.699L17.2279 30.2146L20.4446 27.3318ZM27.5462 17.7341V18.947C27.5462 20.8923 27.2825 22.6384 26.7552 24.1853C26.2396 25.7322 25.4954 27.0505 24.5228 28.1404C23.5501 29.2185 22.4017 30.0447 21.0775 30.6189C19.7532 31.1931 18.2825 31.4802 16.6654 31.4802C15.0599 31.4802 13.5892 31.1931 12.2532 30.6189C10.9173 30.0447 9.76301 29.2185 8.79035 28.1404C7.8177 27.0505 7.06184 25.7322 6.52277 24.1853C5.99543 22.6384 5.73176 20.8923 5.73176 18.947V17.7341C5.73176 15.7771 5.99543 14.031 6.52277 12.4958C7.06184 10.949 7.81184 9.63062 8.77277 8.54077C9.73371 7.45093 10.8821 6.6189 12.2181 6.04468C13.554 5.47046 15.0247 5.18335 16.6302 5.18335C18.2474 5.18335 19.7181 5.47046 21.0423 6.04468C22.3782 6.6189 23.5325 7.45093 24.5052 8.54077C25.4779 9.63062 26.2279 10.949 26.7552 12.4958C27.2825 14.031 27.5462 15.7771 27.5462 17.7341ZM22.22 18.947V17.699C22.22 16.3396 22.0911 15.1443 21.8333 14.113C21.5872 13.0818 21.2239 12.2146 20.7435 11.5115C20.2747 10.8083 19.6946 10.281 19.0032 9.92944C18.3118 9.56616 17.5208 9.38452 16.6302 9.38452C15.7396 9.38452 14.9486 9.56616 14.2571 9.92944C13.5657 10.281 12.9857 10.8083 12.5169 11.5115C12.0482 12.2146 11.6907 13.0818 11.4446 14.113C11.1986 15.1443 11.0755 16.3396 11.0755 17.699V18.947C11.0755 20.2947 11.1986 21.49 11.4446 22.533C11.6907 23.5642 12.0482 24.4373 12.5169 25.1521C12.9974 25.8552 13.5833 26.3884 14.2747 26.7517C14.9779 27.115 15.7747 27.2966 16.6654 27.2966C17.556 27.2966 18.3411 27.115 19.0208 26.7517C19.7122 26.3884 20.2923 25.8552 20.7611 25.1521C21.2415 24.4373 21.6048 23.5642 21.8509 22.533C22.097 21.49 22.22 20.2947 22.22 18.947ZM48.3735 5.53491H53.6293V22.4451C53.6293 24.4138 53.2075 26.072 52.3637 27.4197C51.5317 28.7673 50.3774 29.781 48.9008 30.4607C47.436 31.1404 45.7485 31.4802 43.8383 31.4802C41.9282 31.4802 40.2289 31.1404 38.7407 30.4607C37.2641 29.781 36.1039 28.7673 35.2602 27.4197C34.4282 26.072 34.0121 24.4138 34.0121 22.4451V5.53491H39.2856V22.4451C39.2856 23.5935 39.4672 24.531 39.8305 25.2576C40.1938 25.9841 40.7153 26.5173 41.395 26.8572C42.0864 27.197 42.9008 27.3669 43.8383 27.3669C44.7993 27.3669 45.6137 27.197 46.2817 26.8572C46.9614 26.5173 47.477 25.9841 47.8286 25.2576C48.1918 24.531 48.3735 23.5935 48.3735 22.4451V5.53491ZM66.4586 5.53491V31.1287H61.2027V5.53491H66.4586ZM92.7878 27.0154V31.1287H74.6471V27.0154H92.7878ZM92.5241 8.47046L76.985 31.1287H73.2761V28.1052L88.9382 5.53491H92.5241V8.47046ZM90.7136 5.53491V9.66577H73.2936V5.53491H90.7136Z"/>
</mask>
<path d="M20.4446 27.3318L27.3704 32.8162L24.0482 35.699L17.2279 30.2146L20.4446 27.3318ZM27.5462 17.7341V18.947C27.5462 20.8923 27.2825 22.6384 26.7552 24.1853C26.2396 25.7322 25.4954 27.0505 24.5228 28.1404C23.5501 29.2185 22.4017 30.0447 21.0775 30.6189C19.7532 31.1931 18.2825 31.4802 16.6654 31.4802C15.0599 31.4802 13.5892 31.1931 12.2532 30.6189C10.9173 30.0447 9.76301 29.2185 8.79035 28.1404C7.8177 27.0505 7.06184 25.7322 6.52277 24.1853C5.99543 22.6384 5.73176 20.8923 5.73176 18.947V17.7341C5.73176 15.7771 5.99543 14.031 6.52277 12.4958C7.06184 10.949 7.81184 9.63062 8.77277 8.54077C9.73371 7.45093 10.8821 6.6189 12.2181 6.04468C13.554 5.47046 15.0247 5.18335 16.6302 5.18335C18.2474 5.18335 19.7181 5.47046 21.0423 6.04468C22.3782 6.6189 23.5325 7.45093 24.5052 8.54077C25.4779 9.63062 26.2279 10.949 26.7552 12.4958C27.2825 14.031 27.5462 15.7771 27.5462 17.7341ZM22.22 18.947V17.699C22.22 16.3396 22.0911 15.1443 21.8333 14.113C21.5872 13.0818 21.2239 12.2146 20.7435 11.5115C20.2747 10.8083 19.6946 10.281 19.0032 9.92944C18.3118 9.56616 17.5208 9.38452 16.6302 9.38452C15.7396 9.38452 14.9486 9.56616 14.2571 9.92944C13.5657 10.281 12.9857 10.8083 12.5169 11.5115C12.0482 12.2146 11.6907 13.0818 11.4446 14.113C11.1986 15.1443 11.0755 16.3396 11.0755 17.699V18.947C11.0755 20.2947 11.1986 21.49 11.4446 22.533C11.6907 23.5642 12.0482 24.4373 12.5169 25.1521C12.9974 25.8552 13.5833 26.3884 14.2747 26.7517C14.9779 27.115 15.7747 27.2966 16.6654 27.2966C17.556 27.2966 18.3411 27.115 19.0208 26.7517C19.7122 26.3884 20.2923 25.8552 20.7611 25.1521C21.2415 24.4373 21.6048 23.5642 21.8509 22.533C22.097 21.49 22.22 20.2947 22.22 18.947ZM48.3735 5.53491H53.6293V22.4451C53.6293 24.4138 53.2075 26.072 52.3637 27.4197C51.5317 28.7673 50.3774 29.781 48.9008 30.4607C47.436 31.1404 45.7485 31.4802 43.8383 31.4802C41.9282 31.4802 40.2289 31.1404 38.7407 30.4607C37.2641 29.781 36.1039 28.7673 35.2602 27.4197C34.4282 26.072 34.0121 24.4138 34.0121 22.4451V5.53491H39.2856V22.4451C39.2856 23.5935 39.4672 24.531 39.8305 25.2576C40.1938 25.9841 40.7153 26.5173 41.395 26.8572C42.0864 27.197 42.9008 27.3669 43.8383 27.3669C44.7993 27.3669 45.6137 27.197 46.2817 26.8572C46.9614 26.5173 47.477 25.9841 47.8286 25.2576C48.1918 24.531 48.3735 23.5935 48.3735 22.4451V5.53491ZM66.4586 5.53491V31.1287H61.2027V5.53491H66.4586ZM92.7878 27.0154V31.1287H74.6471V27.0154H92.7878ZM92.5241 8.47046L76.985 31.1287H73.2761V28.1052L88.9382 5.53491H92.5241V8.47046ZM90.7136 5.53491V9.66577H73.2936V5.53491H90.7136Z" fill="black"/>
<path d="M20.4446 27.3318L23.5487 23.412L20.2455 20.7962L17.1077 23.6082L20.4446 27.3318ZM27.3704 32.8162L30.6474 36.5926L35.2023 32.6402L30.4745 28.8963L27.3704 32.8162ZM24.0482 35.699L20.9149 39.5955L24.1701 42.2131L27.3251 39.4754L24.0482 35.699ZM17.2279 30.2146L13.8909 26.4911L9.50564 30.421L14.0946 34.1111L17.2279 30.2146ZM26.7552 24.1853L22.0226 22.5719L22.0172 22.588L22.0118 22.6042L26.7552 24.1853ZM24.5228 28.1404L28.2352 31.4897L28.2442 31.4797L28.2532 31.4697L24.5228 28.1404ZM21.0775 30.6189L19.0883 26.0316H19.0883L21.0775 30.6189ZM8.79035 28.1404L5.05995 31.4697L5.0689 31.4797L5.0779 31.4897L8.79035 28.1404ZM6.52277 24.1853L1.79022 25.7987L1.79569 25.8147L1.80126 25.8307L6.52277 24.1853ZM6.52277 12.4958L1.80126 10.8505L1.7976 10.861L1.79399 10.8715L6.52277 12.4958ZM21.0423 6.04468L19.0531 10.632L19.0605 10.6352L19.0678 10.6383L21.0423 6.04468ZM26.7552 12.4958L22.0226 14.1092L22.0264 14.1202L26.7552 12.4958ZM21.8333 14.113L16.9699 15.2736L16.9761 15.2997L16.9826 15.3257L21.8333 14.113ZM20.7435 11.5115L16.5832 14.285L16.5991 14.3088L16.6153 14.3324L20.7435 11.5115ZM19.0032 9.92944L16.6776 14.3557L16.7072 14.3712L16.737 14.3864L19.0032 9.92944ZM14.2571 9.92944L16.5234 14.3864L16.5532 14.3712L16.5828 14.3557L14.2571 9.92944ZM11.4446 22.533L6.57827 23.6812L6.58121 23.6936L11.4446 22.533ZM12.5169 25.1521L8.33569 27.8939L8.36181 27.9337L8.38869 27.9731L12.5169 25.1521ZM14.2747 26.7517L11.9491 31.1779L11.9643 31.1859L11.9796 31.1938L14.2747 26.7517ZM19.0208 26.7517L16.6952 22.3255L16.6795 22.3337L16.6639 22.3421L19.0208 26.7517ZM20.7611 25.1521L16.6113 22.3629L16.606 22.3707L16.6008 22.3786L20.7611 25.1521ZM21.8509 22.533L26.7144 23.6936L26.7173 23.6812L21.8509 22.533ZM17.3406 31.2516L24.2664 36.736L30.4745 28.8963L23.5487 23.412L17.3406 31.2516ZM24.0935 29.0397L20.7712 31.9225L27.3251 39.4754L30.6474 36.5926L24.0935 29.0397ZM27.1814 31.8025L20.3611 26.3181L14.0946 34.1111L20.9149 39.5955L27.1814 31.8025ZM20.5648 33.9381L23.7816 31.0553L17.1077 23.6082L13.8909 26.4911L20.5648 33.9381ZM22.5462 17.7341V18.947H32.5462V17.7341H22.5462ZM22.5462 18.947C22.5462 20.4451 22.3429 21.6326 22.0226 22.5719L31.4877 25.7987C32.2222 23.6442 32.5462 21.3396 32.5462 18.947H22.5462ZM22.0118 22.6042C21.6863 23.5806 21.262 24.2849 20.7924 24.8111L28.2532 31.4697C29.7289 29.8162 30.7929 27.8837 31.4986 25.7664L22.0118 22.6042ZM20.8103 24.7911C20.3139 25.3413 19.7521 25.7438 19.0883 26.0316L23.0666 35.2062C25.0513 34.3456 26.7863 33.0957 28.2352 31.4897L20.8103 24.7911ZM19.0883 26.0316C18.4634 26.3026 17.6807 26.4802 16.6654 26.4802V36.4802C18.8843 36.4802 21.0431 36.0837 23.0666 35.2062L19.0883 26.0316ZM16.6654 26.4802C15.6678 26.4802 14.8778 26.3047 14.2277 26.0253L10.2788 35.2125C12.3005 36.0815 14.452 36.4802 16.6654 36.4802V26.4802ZM14.2277 26.0253C13.553 25.7353 12.9919 25.3332 12.5028 24.7911L5.0779 31.4897C6.53413 33.1038 8.28157 34.3541 10.2788 35.2125L14.2277 26.0253ZM12.5208 24.8111C12.0361 24.2681 11.5932 23.5411 11.2443 22.5399L1.80126 25.8307C2.5305 27.9233 3.59927 29.833 5.05995 31.4697L12.5208 24.8111ZM11.2553 22.5719C10.9351 21.6326 10.7318 20.4451 10.7318 18.947H0.731758C0.731758 21.3396 1.05575 23.6442 1.79022 25.7987L11.2553 22.5719ZM10.7318 18.947V17.7341H0.731758V18.947H10.7318ZM10.7318 17.7341C10.7318 16.2197 10.9364 15.0378 11.2516 14.1202L1.79399 10.8715C1.05449 13.0242 0.731758 15.3345 0.731758 17.7341H10.7318ZM11.2443 14.1412C11.5973 13.1282 12.0416 12.3936 12.5231 11.8475L5.02241 5.234C3.58204 6.86758 2.52636 8.76974 1.80126 10.8505L11.2443 14.1412ZM12.5231 11.8475C12.9942 11.3132 13.536 10.9205 14.1925 10.6383L10.2436 1.45104C8.22833 2.31726 6.47318 3.58861 5.02241 5.234L12.5231 11.8475ZM14.1925 10.6383C14.8427 10.3589 15.6326 10.1833 16.6302 10.1833V0.18335C14.4168 0.18335 12.2654 0.582036 10.2436 1.45104L14.1925 10.6383ZM16.6302 10.1833C17.6456 10.1833 18.4283 10.361 19.0531 10.632L23.0315 1.45739C21.0079 0.579918 18.8492 0.18335 16.6302 0.18335V10.1833ZM19.0678 10.6383C19.73 10.9229 20.2859 11.3222 20.7748 11.8701L28.2356 5.21149C26.7792 3.57966 25.0264 2.31485 23.0168 1.45104L19.0678 10.6383ZM20.7748 11.8701C21.2519 12.4047 21.6855 13.1204 22.0226 14.1092L31.4877 10.8825C30.7702 8.77759 29.7038 6.85657 28.2356 5.21149L20.7748 11.8701ZM22.0264 14.1202C22.3416 15.0378 22.5462 16.2197 22.5462 17.7341H32.5462C32.5462 15.3345 32.2235 13.0242 31.484 10.8715L22.0264 14.1202ZM27.22 18.947V17.699H17.22V18.947H27.22ZM27.22 17.699C27.22 16.0381 27.064 14.4204 26.684 12.9004L16.9826 15.3257C17.1182 15.8682 17.22 16.6411 17.22 17.699H27.22ZM26.6968 12.9524C26.3424 11.4676 25.7694 10.0042 24.8717 8.69052L16.6153 14.3324C16.6785 14.425 16.832 14.696 16.9699 15.2736L26.6968 12.9524ZM24.9037 8.73797C24.0025 7.38607 22.7937 6.24756 21.2695 5.47252L16.737 14.3864C16.6806 14.3577 16.6302 14.3217 16.5935 14.2883C16.5585 14.2565 16.5581 14.2473 16.5832 14.285L24.9037 8.73797ZM21.3289 5.50323C19.8251 4.71311 18.2164 4.38452 16.6302 4.38452V14.3845C16.735 14.3845 16.7775 14.3951 16.7724 14.3939C16.7702 14.3934 16.759 14.3907 16.7409 14.384C16.7227 14.3773 16.701 14.368 16.6776 14.3557L21.3289 5.50323ZM16.6302 4.38452C15.044 4.38452 13.4353 4.71311 11.9315 5.50323L16.5828 14.3557C16.5594 14.368 16.5377 14.3773 16.5195 14.384C16.5014 14.3907 16.4902 14.3934 16.488 14.3939C16.4828 14.3951 16.5254 14.3845 16.6302 14.3845V4.38452ZM11.9909 5.47252C10.4667 6.24756 9.25793 7.38607 8.35666 8.73797L16.6772 14.285C16.7023 14.2473 16.7019 14.2565 16.6669 14.2883C16.6302 14.3217 16.5798 14.3577 16.5234 14.3864L11.9909 5.47252ZM8.35666 8.73797C7.48849 10.0402 6.931 11.4867 6.58121 12.9524L16.3081 15.2736C16.4505 14.6769 16.6078 14.389 16.6772 14.285L8.35666 8.73797ZM6.58121 12.9524C6.22312 14.453 6.07551 16.0524 6.07551 17.699H16.0755C16.0755 16.6268 16.174 15.8356 16.3081 15.2736L6.58121 12.9524ZM6.07551 17.699V18.947H16.0755V17.699H6.07551ZM6.07551 18.947C6.07551 20.5871 6.2241 22.1802 6.57828 23.6812L16.311 21.3847C16.173 20.7998 16.0755 20.0023 16.0755 18.947H6.07551ZM6.58121 23.6936C6.93052 25.1573 7.48396 26.595 8.33569 27.8939L16.6981 22.4103C16.6124 22.2795 16.451 21.9711 16.3081 21.3724L6.58121 23.6936ZM8.38869 27.9731C9.28734 29.2881 10.4708 30.4012 11.9491 31.1779L16.6004 22.3255C16.6165 22.334 16.6329 22.3439 16.6483 22.3548C16.6637 22.3656 16.675 22.375 16.6819 22.3813C16.6888 22.3875 16.689 22.3885 16.6832 22.3818C16.6773 22.375 16.6642 22.359 16.6451 22.3311L8.38869 27.9731ZM11.9796 31.1938C13.477 31.9675 15.0774 32.2966 16.6654 32.2966V22.2966C16.5609 22.2966 16.5139 22.2861 16.5109 22.2854C16.5089 22.285 16.5149 22.2862 16.5269 22.2906C16.539 22.295 16.5538 22.3013 16.5698 22.3096L11.9796 31.1938ZM16.6654 32.2966C18.2494 32.2966 19.8672 31.9687 21.3777 31.1614L16.6639 22.3421C16.6949 22.3255 16.7235 22.313 16.748 22.3039C16.7723 22.2948 16.7888 22.2905 16.7952 22.2891C16.8086 22.286 16.7706 22.2966 16.6654 22.2966V32.2966ZM21.3465 31.1779C22.8378 30.3943 24.0278 29.2658 24.9213 27.9256L16.6008 22.3786C16.5721 22.4216 16.5662 22.4208 16.5908 22.3982C16.6023 22.3876 16.6179 22.3746 16.6373 22.361C16.6567 22.3473 16.6764 22.3353 16.6952 22.3255L21.3465 31.1779ZM24.9108 27.9413C25.7916 26.6309 26.3605 25.1763 26.7143 23.6936L16.9875 21.3724C16.8491 21.9521 16.6915 22.2436 16.6113 22.3629L24.9108 27.9413ZM26.7173 23.6812C27.0714 22.1802 27.22 20.5871 27.22 18.947H17.22C17.22 20.0023 17.1225 20.7998 16.9845 21.3847L26.7173 23.6812ZM48.3735 5.53491V0.534912H43.3735V5.53491H48.3735ZM53.6293 5.53491H58.6293V0.534912H53.6293V5.53491ZM52.3637 27.4197L48.1258 24.7664L48.1175 24.7797L48.1092 24.793L52.3637 27.4197ZM48.9008 30.4607L46.8101 25.9188L46.8032 25.922L46.7963 25.9252L48.9008 30.4607ZM38.7407 30.4607L36.6499 35.0026L36.6567 35.0057L36.6636 35.0088L38.7407 30.4607ZM35.2602 27.4197L31.0057 30.0464L31.014 30.0597L31.0223 30.073L35.2602 27.4197ZM34.0121 5.53491V0.534912H29.0121V5.53491H34.0121ZM39.2856 5.53491H44.2856V0.534912H39.2856V5.53491ZM41.395 26.8572L39.1589 31.3293L39.1741 31.3369L39.1894 31.3444L41.395 26.8572ZM46.2817 26.8572L44.0456 22.385L44.03 22.3929L44.0144 22.4008L46.2817 26.8572ZM47.8286 25.2576L43.3564 23.0215L43.3419 23.0505L43.3278 23.0798L47.8286 25.2576ZM48.3735 10.5349H53.6293V0.534912H48.3735V10.5349ZM48.6293 5.53491V22.4451H58.6293V5.53491H48.6293ZM48.6293 22.4451C48.6293 23.6986 48.3651 24.3842 48.1258 24.7664L56.6016 30.073C58.0498 27.7599 58.6293 25.129 58.6293 22.4451H48.6293ZM48.1092 24.793C47.8085 25.2801 47.4176 25.6392 46.8101 25.9188L50.9915 35.0026C53.3372 33.9229 55.2549 32.2545 56.6182 30.0464L48.1092 24.793ZM46.7963 25.9252C46.1006 26.248 45.153 26.4802 43.8383 26.4802V36.4802C46.3439 36.4802 48.7714 36.0328 51.0053 34.9962L46.7963 25.9252ZM43.8383 26.4802C42.5258 26.4802 41.5538 26.2487 40.8178 25.9125L36.6636 35.0088C38.9041 36.0321 41.3305 36.4802 43.8383 36.4802V26.4802ZM40.8314 25.9188C40.2182 25.6365 39.8132 25.2696 39.4981 24.7664L31.0223 30.073C32.3947 32.2651 34.31 33.9255 36.6499 35.0026L40.8314 25.9188ZM39.5147 24.793C39.2759 24.4062 39.0121 23.7106 39.0121 22.4451H29.0121C29.0121 25.117 29.5805 27.7378 31.0057 30.0464L39.5147 24.793ZM39.0121 22.4451V5.53491H29.0121V22.4451H39.0121ZM34.0121 10.5349H39.2856V0.534912H34.0121V10.5349ZM34.2856 5.53491V22.4451H44.2856V5.53491H34.2856ZM34.2856 22.4451C34.2856 24.069 34.5347 25.8463 35.3584 27.4936L44.3026 23.0215C44.3562 23.1286 44.3496 23.157 44.3305 23.0585C44.3112 22.9585 44.2856 22.7619 44.2856 22.4451H34.2856ZM35.3584 27.4936C36.17 29.1168 37.4429 30.4713 39.1589 31.3293L43.631 22.385C43.779 22.459 43.9332 22.5679 44.0687 22.7064C44.2015 22.8422 44.2729 22.962 44.3026 23.0215L35.3584 27.4936ZM39.1894 31.3444C40.6999 32.0869 42.2993 32.3669 43.8383 32.3669V22.3669C43.5023 22.3669 43.4728 22.3071 43.6006 22.3699L39.1894 31.3444ZM43.8383 32.3669C45.3716 32.3669 47.0088 32.0972 48.549 31.3136L44.0144 22.4008C44.1152 22.3495 44.17 22.3405 44.1487 22.3449C44.1243 22.35 44.0272 22.3669 43.8383 22.3669V32.3669ZM48.5177 31.3293C50.2486 30.4639 51.5289 29.0897 52.3294 27.4354L43.3278 23.0798C43.363 23.007 43.4414 22.8739 43.5839 22.7266C43.7289 22.5767 43.8922 22.4617 44.0456 22.385L48.5177 31.3293ZM52.3007 27.4936C53.1244 25.8463 53.3735 24.069 53.3735 22.4451H43.3735C43.3735 22.7619 43.3479 22.9585 43.3285 23.0585C43.3094 23.157 43.3029 23.1286 43.3564 23.0215L52.3007 27.4936ZM53.3735 22.4451V5.53491H43.3735V22.4451H53.3735ZM66.4586 5.53491H71.4586V0.534912H66.4586V5.53491ZM66.4586 31.1287V36.1287H71.4586V31.1287H66.4586ZM61.2027 31.1287H56.2027V36.1287H61.2027V31.1287ZM61.2027 5.53491V0.534912H56.2027V5.53491H61.2027ZM61.4586 5.53491V31.1287H71.4586V5.53491H61.4586ZM66.4586 26.1287H61.2027V36.1287H66.4586V26.1287ZM66.2027 31.1287V5.53491H56.2027V31.1287H66.2027ZM61.2027 10.5349H66.4586V0.534912H61.2027V10.5349ZM92.7878 27.0154H97.7878V22.0154H92.7878V27.0154ZM92.7878 31.1287V36.1287H97.7878V31.1287H92.7878ZM74.6471 31.1287H69.6471V36.1287H74.6471V31.1287ZM74.6471 27.0154V22.0154H69.6471V27.0154H74.6471ZM92.5241 8.47046L96.6476 11.2983L97.5241 10.0202V8.47046H92.5241ZM76.985 31.1287V36.1287H79.6189L81.1085 33.9566L76.985 31.1287ZM73.2761 31.1287H68.2761V36.1287H73.2761V31.1287ZM73.2761 28.1052L69.1682 25.2547L68.2761 26.5403V28.1052H73.2761ZM88.9382 5.53491V0.534912H86.3219L84.8303 2.68437L88.9382 5.53491ZM92.5241 5.53491H97.5241V0.534912H92.5241V5.53491ZM90.7136 5.53491H95.7136V0.534912H90.7136V5.53491ZM90.7136 9.66577V14.6658H95.7136V9.66577H90.7136ZM73.2936 9.66577H68.2936V14.6658H73.2936V9.66577ZM73.2936 5.53491V0.534912H68.2936V5.53491H73.2936ZM87.7878 27.0154V31.1287H97.7878V27.0154H87.7878ZM92.7878 26.1287H74.6471V36.1287H92.7878V26.1287ZM79.6471 31.1287V27.0154H69.6471V31.1287H79.6471ZM74.6471 32.0154H92.7878V22.0154H74.6471V32.0154ZM88.4006 5.64257L72.8616 28.3008L81.1085 33.9566L96.6476 11.2983L88.4006 5.64257ZM76.985 26.1287H73.2761V36.1287H76.985V26.1287ZM78.2761 31.1287V28.1052H68.2761V31.1287H78.2761ZM77.3839 30.9558L93.046 8.38545L84.8303 2.68437L69.1682 25.2547L77.3839 30.9558ZM88.9382 10.5349H92.5241V0.534912H88.9382V10.5349ZM87.5241 5.53491V8.47046H97.5241V5.53491H87.5241ZM85.7136 5.53491V9.66577H95.7136V5.53491H85.7136ZM90.7136 4.66577H73.2936V14.6658H90.7136V4.66577ZM78.2936 9.66577V5.53491H68.2936V9.66577H78.2936ZM73.2936 10.5349H90.7136V0.534912H73.2936V10.5349Z" fill="white" mask="url(#path-1-outside-1_45_27)"/>
</svg>
