<svg width="72" height="48" viewBox="0 0 72 48" fill="none" xmlns="http://www.w3.org/2000/svg">
<path d="M10.5591 0.485474C7.91521 0.485474 5.37961 1.53575 3.51011 3.40525C1.64061 5.27476 0.590332 7.81035 0.590332 10.4542V37.6417C0.590332 40.2856 1.64061 42.8212 3.51011 44.6907C5.37961 46.5602 7.91521 47.6105 10.5591 47.6105H41.3716C44.0155 47.6105 46.5511 46.5602 48.4206 44.6907C50.2901 42.8212 51.3403 40.2856 51.3403 37.6417V31.8635L63.7342 42.9016C66.6523 45.5007 71.2778 43.4272 71.2778 39.5159V7.2461C71.2778 3.3311 66.6523 1.26122 63.7342 3.86035L51.3403 14.8985V10.4542C51.3403 7.81035 50.2901 5.27476 48.4206 3.40525C46.5511 1.53575 44.0155 0.485474 41.3716 0.485474H10.5591Z" fill="white"/>
</svg>
