<svg width="115" height="113" viewBox="0 0 115 113" fill="none" xmlns="http://www.w3.org/2000/svg">
<path d="M229.113 87.3728C225.818 86.0024 224.005 83.8443 222.846 82.1361C222.055 80.9703 221.527 79.7168 221.016 78.5036C220.068 76.2514 219.249 74.3054 216.984 73.3973C212.804 71.7189 207.387 73.2208 203.804 74.2154C198.021 75.8178 193.315 75.0686 190.371 72.128C189.926 72.6873 189.463 73.2307 189.003 73.766C187.241 75.8178 185.578 77.7556 185.31 80.3146C185.27 80.6985 185.387 81.0889 185.582 81.2216C186.152 81.609 186.299 82.3839 185.912 82.9537C185.671 83.3084 185.279 83.4995 184.88 83.4995C184.638 83.4995 184.394 83.4294 184.179 83.2833C183.208 82.6235 182.691 81.3864 182.829 80.0552C183.178 76.7207 185.178 74.3925 187.111 72.1403C188.567 70.4444 189.944 68.842 190.557 66.8949C191.433 64.1144 190.711 60.9885 188.576 58.3185C184.512 53.2338 176.017 50.2517 169.85 53.9146C168.498 54.7175 166.647 56.1679 165.684 57.6973C163.537 62.3437 159.706 64.9016 154.578 65.0909C154.136 65.1061 153.644 65.0529 153.171 65.0003C152.676 64.9454 151.765 64.8437 151.501 64.9752C151.507 64.9886 151.488 65.0704 151.491 65.2294C151.505 66.1054 151.571 66.9925 151.635 67.8503C151.852 70.7506 152.077 73.7491 150.34 76.7388C145.684 84.7483 135.735 87.9379 128.63 88.2353C128.288 88.2499 127.94 88.2569 127.59 88.2569C118.917 88.2575 108.196 83.8677 103.659 75.1259C103.341 74.5152 103.579 73.7619 104.19 73.4446C104.8 73.1285 105.554 73.3652 105.872 73.977C110.113 82.1461 120.475 86.0731 128.527 85.7435C135.002 85.4724 144.036 82.6229 148.185 75.4853C149.534 73.1647 149.355 70.7886 149.149 68.0367C149.082 67.1432 149.013 66.2193 148.997 65.2703C148.983 64.3586 149.258 63.6393 149.818 63.1309C150.809 62.2286 152.273 62.3905 153.447 62.5219C153.846 62.5664 154.227 62.6049 154.486 62.5985C158.549 62.4483 161.489 60.5362 163.258 56.954C163.285 56.8669 163.319 56.7804 163.366 56.6974C163.41 56.6197 163.46 56.5443 163.507 56.4677C163.514 56.4502 163.524 56.4356 163.533 56.4175C166.715 49.177 164.434 38.2999 160.271 33.4121C156.435 28.9112 148.347 25.4786 142.425 27.5473C140.208 28.3198 138.404 26.8314 136.957 25.6346C136.528 25.2799 136.123 24.9444 135.745 24.6955C133.028 22.8991 128.79 22.3819 124.956 23.3771C122.06 24.1281 118.078 26.0483 115.525 30.9215C118.028 35.5358 117.624 41.2808 116.278 45.5141C116.297 45.6239 116.307 45.7362 116.295 45.8524C115.76 51.0482 120.147 57.0562 125.684 58.7106C131.23 60.3661 138.941 58.4003 141.144 52.9305C141.989 50.8308 141.951 48.6096 141.034 46.5052C139.822 43.7253 137.203 41.3387 134.028 40.1202C132.428 39.5072 129.228 38.8778 127.447 39.8006C126.882 40.0939 126.548 40.51 126.396 41.1108C126.264 41.635 126.334 42.1089 126.611 42.5612C127.126 43.3998 128.335 44.1408 129.69 44.4493C130.362 44.6019 130.783 45.2704 130.631 45.9418C130.478 46.6127 129.809 47.0352 129.138 46.8815C127.563 46.5233 125.514 45.5433 124.485 43.865C123.857 42.8394 123.681 41.6759 123.978 40.5007C124.303 39.2133 125.105 38.2064 126.297 37.5869C129.017 36.1757 133.127 37.1037 134.92 37.7915C138.707 39.2437 141.847 42.1288 143.319 45.5088C144.51 48.2402 144.556 51.1282 143.457 53.862C141.334 59.1331 135.449 61.781 129.784 61.781C128.127 61.781 126.489 61.5542 124.969 61.1001C119.796 59.5556 115.587 54.9764 114.229 50.0267C110.822 55.7279 104.723 60.4392 97.7253 62.5447C92.1696 64.2149 81.8646 64.5065 77.8499 58.1753C77.0481 56.9107 76.9067 55.5783 76.7822 54.4031C76.6946 53.5768 76.6116 52.7961 76.3071 52.1614C75.9647 51.4479 75.7315 51.4035 74.5505 51.286C74.3062 51.2615 74.0496 51.2364 73.7785 51.2001C70.0601 50.7028 67.0844 48.4021 65.6135 44.887C63.9323 40.8694 64.5295 36.036 67.1364 32.5735C69.8859 28.9194 74.6235 26.8957 79.8046 27.1645C84.8163 27.4228 89.1653 29.8287 91.4379 33.6009C91.7926 34.1905 91.6027 34.9572 91.0131 35.3119C90.4234 35.6667 89.6567 35.4779 89.3008 34.8871C87.4571 31.8261 83.8591 29.8696 79.6761 29.6545C75.3832 29.4366 71.3446 31.1266 69.1286 34.0725C67.0453 36.8407 66.5678 40.7075 67.9142 43.924C69.0503 46.6396 71.2499 48.346 74.1087 48.7276C74.35 48.7597 74.5785 48.7825 74.7965 48.8042C76.1084 48.9339 77.5957 49.0817 78.5564 51.0821C79.0479 52.1053 79.1566 53.1397 79.2629 54.1402C79.3728 55.1739 79.4669 56.0668 79.956 56.8388C83.0591 61.7318 91.7944 61.7237 97.0059 60.1558C104.783 57.8159 111.336 52.0118 113.699 45.3692C115.053 41.5625 115.656 35.6135 112.899 31.3773C111.009 28.4735 107.122 23.7687 102.316 24.8796L102.314 24.8801C101.645 25.0362 100.973 24.6166 100.818 23.9463C100.738 23.6015 100.81 23.2567 100.99 22.9815C101.079 21.7835 100.364 17.171 100.139 16.378C97.3314 7.06409 87.0171 2.40482 78.301 1.15191C68.3882 -0.272231 57.7659 4.15681 51.2483 12.4375C50.426 13.483 49.6692 14.5915 48.9995 15.7311C46.835 19.4138 45.6341 23.4309 45.5271 27.3468C45.4266 31.0366 46.5615 33.7429 47.8758 36.8763C48.1481 37.5256 48.4262 38.19 48.7021 38.8825C48.8505 39.2063 48.9797 39.5405 49.0884 39.8841C49.2929 40.5281 48.947 41.2183 48.3082 41.4392C47.6724 41.6613 46.9712 41.3334 46.7333 40.7011C46.6252 40.4154 46.5159 40.1337 46.4055 39.8549C45.6253 38.1941 44.1346 36.9172 41.963 36.0529C37.0185 34.0847 29.9171 34.8555 26.3898 36.8109C20.1702 40.2576 15.3409 47.463 14.9079 53.9432C14.739 56.4601 15.6705 57.8036 16.9585 59.662C17.4757 60.407 18.0098 61.1784 18.5182 62.0965C18.5199 62.0983 18.5205 62.1 18.5217 62.1017C18.8554 62.7042 18.6368 63.4634 18.0343 63.7965C17.5949 64.0396 17.0724 63.9899 16.6926 63.7106C15.7061 63.7258 12.682 64.8571 12.0497 65.2417C5.25214 69.3773 0.287221 77.4663 0.245145 84.4748C0.215926 89.3889 2.54117 93.4492 6.96903 96.2168C11.0276 98.753 15.8312 100.105 20.494 100.022C22.5142 99.9866 24.4806 99.563 26.561 99.1148C29.369 98.5093 32.2716 97.8852 35.3285 98.2861C39.9487 98.8938 44.2491 100.664 48.4081 102.376C52.3556 104.001 56.437 105.68 60.6878 106.292C63.1965 106.653 71.7893 107.473 76.9488 102.845C84.2231 96.3197 85.4504 84.6455 79.6288 77.3506C75.7397 72.4769 69.6352 69.1213 63.2988 68.3733C58.5191 67.8082 53.8341 68.9911 50.7743 71.5343C46.991 74.6788 46.2781 80.1113 49.1848 83.6438C50.0877 84.7407 51.2763 85.5664 52.5316 85.9679C55.0765 86.782 58.0913 85.9691 60.513 85.3157C61.1722 85.1369 61.8618 85.529 62.0418 86.1947C62.2212 86.8597 61.8273 87.5446 61.1623 87.724C58.4244 88.4626 55.0146 89.3819 51.7713 88.344C50.0397 87.7894 48.48 86.7124 47.2592 85.2287C43.4836 80.6395 44.3455 73.6363 49.1801 69.6169C52.7548 66.6453 58.1398 65.2522 63.5915 65.8967C70.5656 66.7201 77.29 70.421 81.5794 75.7962C86.345 81.768 87.065 90.0101 84.1133 96.9783C89.593 95.4852 96.5571 98.1447 99.8098 101.444C105.089 106.799 110.943 112.038 119.31 112.176C119.387 112.178 119.465 112.179 119.541 112.179C125.337 112.179 130.069 108.566 134.647 105.071C135.088 104.734 135.527 104.399 135.966 104.068C139.05 101.74 145.718 98.1715 151.148 99.5723C153.583 100.201 155.44 101.811 156.516 104.227C156.796 104.857 156.514 105.594 155.885 105.874C155.255 106.155 154.518 105.871 154.239 105.242C153.461 103.496 152.246 102.431 150.524 101.987C148.184 101.384 145.093 102.049 142.213 103.306C142.217 103.399 142.213 103.494 142.194 103.589C141.909 105.098 145.321 107.604 147.762 108.557C150.561 109.649 154.079 109.993 157.671 109.527C162.475 108.903 167.756 106.311 168.585 100.937C168.15 100.766 167.718 100.585 167.294 100.382C163.278 98.4579 160.238 95.1696 158.954 91.3594C157.844 88.0641 158.118 84.6431 159.747 81.4659C161.115 78.8017 163.502 77.1011 166.296 76.8001C168.883 76.5231 171.394 77.4628 172.866 79.2528C173.304 79.7846 173.227 80.5706 172.696 81.0083C172.163 81.446 171.378 81.37 170.94 80.8376C170.009 79.7057 168.288 79.0897 166.563 79.2802C165.42 79.403 163.304 79.999 161.966 82.6048C160.652 85.1685 160.427 87.9203 161.317 90.5629C162.387 93.7384 164.958 96.4979 168.371 98.1324C173.481 100.582 179.716 100.366 185.477 97.5393C188.843 95.8872 191.467 93.1132 194.245 90.1772C195.976 88.3475 197.765 86.4559 199.744 84.8763C201.81 83.226 205.007 81.0165 208.899 80.8815C212.697 80.7371 215.601 82.7059 218.418 84.5975C221.093 86.3945 223.615 88.0922 226.709 87.8485C227.503 87.7883 228.293 87.5966 229.113 87.3728Z" fill="black" fill-opacity="0.25"/>
</svg>
