<svg width="216" height="242" viewBox="0 0 216 242" fill="none" xmlns="http://www.w3.org/2000/svg">
<path d="M107.999 41.6958V234.092M107.999 234.092H77.9985M107.999 234.092H137.999M197.999 132.235L172.999 75.648L147.999 132.235M67.9985 132.235L42.9985 75.648L17.9985 132.235" stroke="black" stroke-width="15" stroke-linecap="round" stroke-linejoin="round"/>
<path d="M27.9988 75.648H38.4788C51.1188 75.648 63.3788 69.6611 73.2388 58.6719C93.5588 36.0371 122.439 36.0371 142.759 58.6719C152.619 69.6611 164.879 75.648 177.519 75.648H187.999M172.999 177.505C186.549 177.505 198.339 168.066 204.469 154.134C207.779 146.608 209.429 142.851 206.419 137.543C203.399 132.235 198.399 132.235 188.399 132.235H157.579C147.589 132.235 142.589 132.235 139.579 137.543C136.559 142.851 138.209 146.608 141.519 154.134C147.659 168.066 159.449 177.505 172.999 177.505ZM42.9988 177.505C56.5488 177.505 68.3388 168.066 74.4688 154.134C77.7788 146.608 79.4288 142.851 76.4188 137.543C73.3988 132.235 68.3988 132.235 58.3988 132.235H27.5888C17.5988 132.235 12.5988 132.235 9.58877 137.543C6.56877 142.851 8.21877 146.608 11.5288 154.134C17.6588 168.066 29.4488 177.505 42.9988 177.505Z" stroke="black" stroke-width="15" stroke-linecap="round" stroke-linejoin="round"/>
<path d="M122.999 24.7198C122.999 29.2221 121.418 33.5401 118.605 36.7237C115.792 39.9073 111.977 41.6959 107.999 41.6959C104.02 41.6959 100.205 39.9073 97.3919 36.7237C94.5789 33.5401 92.9985 29.2221 92.9985 24.7198C92.9985 20.2174 94.5789 15.8995 97.3919 12.7158C100.205 9.5322 104.02 7.74365 107.999 7.74365C111.977 7.74365 115.792 9.5322 118.605 12.7158C121.418 15.8995 122.999 20.2174 122.999 24.7198Z" stroke="black" stroke-width="15" stroke-linecap="round" stroke-linejoin="round"/>
</svg>
