<svg width="71" height="71" viewBox="0 0 71 71" fill="none" xmlns="http://www.w3.org/2000/svg">
<path d="M35.5595 0.131069C32.4212 0.131069 29.3808 0.544383 26.4876 1.31847L33.9343 8.76163C34.4993 9.32883 34.9975 9.95872 35.4194 10.6391H35.5595C40.4089 10.6391 45.1493 12.0771 49.1814 14.7712C53.2134 17.4653 56.3561 21.2946 58.2118 25.7748C60.0676 30.255 60.5531 35.1849 59.6071 39.9411C58.661 44.6972 56.3258 49.066 52.8968 52.495C49.4678 55.924 45.099 58.2592 40.3429 59.2052C35.5867 60.1513 30.6569 59.6657 26.1767 57.81C21.6965 55.9542 17.8672 52.8116 15.173 48.7795C12.4789 44.7475 11.0409 40.007 11.0409 35.1577V35.0176C10.3637 34.5973 9.73907 34.1011 9.16697 33.529L1.72031 26.0858C0.94622 28.979 0.532906 32.0193 0.532906 35.1577C0.532906 54.5029 16.2143 70.1843 35.5595 70.1843C54.9048 70.1843 70.5862 54.5029 70.5862 35.1577C70.5862 15.8125 54.9048 0.131069 35.5595 0.131069ZM37.0096 17.7039C37.0096 20.6847 37.1568 23.7075 36.9956 26.6848L38.8871 28.5762C39.5377 29.2268 40.0538 29.9993 40.4059 30.8494C40.7581 31.6995 40.9393 32.6106 40.9393 33.5307C40.9393 34.4509 40.7581 35.362 40.4059 36.2121C40.0538 37.0622 39.5377 37.8346 38.8871 38.4852C38.2364 39.1359 37.464 39.652 36.6139 40.0041C35.7638 40.3562 34.8527 40.5375 33.9326 40.5375C33.0124 40.5375 32.1013 40.3562 31.2512 40.0041C30.4011 39.652 29.6287 39.1359 28.978 38.4852L27.0866 36.5938C24.1093 36.7549 21.09 36.6078 18.1058 36.6078C18.3825 39.9365 19.6053 43.1167 21.6301 45.7733C23.6548 48.4298 26.3971 50.452 29.5333 51.6012C32.6696 52.7504 36.0691 52.9788 39.3309 52.2593C42.5928 51.5399 45.5808 49.9027 47.9427 47.5408C50.3046 45.179 51.9418 42.1909 52.6612 38.9291C53.3806 35.6673 53.1522 32.2678 52.003 29.1315C50.8538 25.9952 48.8317 23.253 46.1751 21.2282C43.5185 19.2035 40.3384 17.9806 37.0096 17.7039ZM12.7782 0.575907C12.1389 0.840986 11.5924 1.28953 11.2078 1.86492C10.8231 2.44031 10.6176 3.11676 10.6171 3.80887V10.2187H4.2107C3.51805 10.2189 2.84099 10.4244 2.26512 10.8093C1.68925 11.1942 1.24042 11.7412 0.975372 12.3811C0.71032 13.021 0.640961 13.7252 0.776047 14.4045C0.91114 15.0839 1.24461 15.7079 1.73432 16.1978L14.1232 28.5727C14.78 29.2296 15.6707 29.5988 16.5996 29.599H25.0516L31.4544 36.0054C32.1117 36.6626 33.0031 37.0318 33.9326 37.0318C34.862 37.0318 35.7534 36.6626 36.4107 36.0054C37.0679 35.3481 37.4372 34.4567 37.4372 33.5272C37.4372 32.5977 37.0679 31.7063 36.4107 31.0491L30.0043 24.6497V16.1943C30.0047 15.7338 29.9142 15.2777 29.7381 14.8521C29.562 14.4266 29.3037 14.04 28.978 13.7144L16.5961 1.33248C16.1063 0.842345 15.4821 0.50851 14.8025 0.373213C14.1229 0.237915 13.4184 0.307236 12.7782 0.572404" fill="white"/>
</svg>
